<?xml version="1.0" encoding="utf-8"?>
<!-- Generator: Adobe Illustrator 19.2.1, SVG Export Plug-In . SVG Version: 6.00 Build 0)  -->
<svg version="1.1" id="Layer_1" xmlns="http://www.w3.org/2000/svg" xmlns:xlink="http://www.w3.org/1999/xlink" x="0px" y="0px"
	 viewBox="0 0 320.2 96.5" style="enable-background:new 0 0 320.2 96.5;" xml:space="preserve">
<style type="text/css">
	.st0{fill-rule:evenodd;clip-rule:evenodd;fill:#4D2956;}
</style>
<g>
	<g>
		<path class="st0" d="M198.6,75.5c-18.6,13.7-45.6,21-68.8,21c-32.6,0-61.9-12-84-32.1c-1.7-1.6-0.2-3.7,1.9-2.5
			c23.9,13.9,53.5,22.3,84.1,22.3c20.6,0,43.3-4.3,64.1-13.1C199.1,69.8,201.7,73.2,198.6,75.5z"/>
		<path class="st0" d="M206.4,66.6c-2.4-3-15.7-1.4-21.7-0.7c-1.8,0.2-2.1-1.4-0.5-2.5c10.7-7.5,28.1-5.3,30.1-2.8
			c2,2.5-0.5,20-10.5,28.4c-1.5,1.3-3,0.6-2.3-1.1C203.7,82.2,208.8,69.7,206.4,66.6z"/>
	</g>
	<g>
		<path class="st0" d="M185.1,10.5V3.3c0-1.1,0.8-1.8,1.8-1.8l32.6,0c1,0,1.9,0.8,1.9,1.8v6.2c0,1-0.9,2.4-2.5,4.6l-16.9,24.1
			c6.3-0.1,12.9,0.8,18.6,4c1.3,0.7,1.6,1.8,1.7,2.8v7.8c0,1.1-1.2,2.3-2.4,1.7c-10-5.3-23.3-5.8-34.4,0.1c-1.1,0.6-2.3-0.6-2.3-1.7
			v-7.4c0-1.2,0-3.2,1.2-5l19.5-28l-17,0C185.9,12.4,185.1,11.6,185.1,10.5z"/>
		<path class="st0" d="M66.3,55.9h-9.9c-0.9-0.1-1.7-0.8-1.8-1.7l0-50.9c0-1,0.9-1.8,1.9-1.8l9.2,0c1,0,1.7,0.8,1.8,1.7v6.6h0.2
			c2.4-6.4,6.9-9.4,13-9.4c6.2,0,10.1,3,12.9,9.4c2.4-6.4,7.9-9.4,13.7-9.4c4.2,0,8.7,1.7,11.5,5.6c3.1,4.3,2.5,10.5,2.5,15.9
			l0,32.1c0,1-0.9,1.8-1.9,1.8h-9.9c-1-0.1-1.8-0.9-1.8-1.8l0-27c0-2.1,0.2-7.5-0.3-9.5c-0.7-3.4-3-4.4-5.8-4.4
			c-2.4,0-4.9,1.6-5.9,4.2c-1,2.6-0.9,6.8-0.9,9.7v27c0,1-0.9,1.8-1.9,1.8h-9.9c-1-0.1-1.8-0.9-1.8-1.8l0-27c0-5.7,0.9-14-6.1-14
			c-7.1,0-6.8,8.1-6.8,14l0,27C68.2,55.1,67.3,55.9,66.3,55.9z"/>
		<path class="st0" d="M249.4,0.5c14.7,0,22.7,12.6,22.7,28.7c0,15.5-8.8,27.8-22.7,27.8c-14.4,0-22.3-12.6-22.3-28.4
			C227.1,12.8,235.1,0.5,249.4,0.5z M249.5,10.9c-7.3,0-7.8,10-7.8,16.2c0,6.2-0.1,19.5,7.7,19.5c7.7,0,8-10.7,8-17.2
			c0-4.3-0.2-9.4-1.5-13.5C254.9,12.3,252.7,10.9,249.5,10.9z"/>
		<path class="st0" d="M291.2,55.9h-9.9c-1-0.1-1.8-0.9-1.8-1.8l0-50.9c0.1-0.9,0.9-1.7,1.9-1.7l9.2,0c0.9,0,1.6,0.6,1.8,1.4v7.8
			h0.2c2.8-7,6.7-10.3,13.5-10.3c4.4,0,8.8,1.6,11.6,6c2.6,4.1,2.6,10.9,2.6,15.8v32c-0.1,0.9-0.9,1.6-1.9,1.6h-9.9
			c-0.9-0.1-1.7-0.7-1.8-1.6V26.7c0-5.6,0.6-13.7-6.2-13.7c-2.4,0-4.6,1.6-5.7,4.1c-1.4,3.1-1.6,6.2-1.6,9.6v27.4
			C293.1,55.1,292.2,55.9,291.2,55.9z"/>
		<path class="st0" d="M159.1,31.6c0,3.9,0.1,7.1-1.9,10.5c-1.6,2.8-4.1,4.5-6.9,4.5c-3.8,0-6-2.9-6-7.2c0-8.4,7.6-10,14.7-10V31.6z
			 M169.1,55.8c-0.7,0.6-1.6,0.6-2.3,0.2c-3.3-2.7-3.9-4-5.7-6.6c-5.4,5.5-9.3,7.2-16.3,7.2c-8.3,0-14.8-5.2-14.8-15.4
			c0-8,4.4-13.5,10.6-16.2c5.4-2.4,12.9-2.8,18.6-3.4v-1.3c0-2.4,0.2-5.1-1.2-7.2c-1.2-1.8-3.5-2.6-5.6-2.6c-3.8,0-7.1,1.9-8,6
			c-0.2,0.9-0.8,1.8-1.7,1.8l-9.6-1c-0.8-0.2-1.7-0.8-1.5-2.1C133.8,3.5,144.3,0,153.7,0c4.8,0,11.1,1.3,14.9,4.9
			c4.8,4.5,4.4,10.5,4.4,17.1v15.4c0,4.6,1.9,6.7,3.7,9.2c0.6,0.9,0.8,2,0,2.6C174.7,50.9,171.1,54.1,169.1,55.8L169.1,55.8z"/>
		<path class="st0" d="M29.2,31.6c0,3.9,0.1,7.1-1.9,10.5c-1.6,2.8-4.1,4.5-6.9,4.5c-3.8,0-6-2.9-6-7.2c0-8.4,7.6-10,14.7-10V31.6z
			 M39.2,55.8c-0.7,0.6-1.6,0.6-2.3,0.2c-3.3-2.7-3.9-4-5.7-6.6c-5.4,5.5-9.3,7.2-16.3,7.2C6.5,56.6,0,51.5,0,41.2
			c0-8,4.4-13.5,10.6-16.2c5.4-2.4,12.9-2.8,18.6-3.4v-1.3c0-2.4,0.2-5.1-1.2-7.2c-1.2-1.8-3.5-2.6-5.6-2.6c-3.8,0-7.1,1.9-8,6
			c-0.2,0.9-0.8,1.8-1.7,1.8l-9.6-1c-0.8-0.2-1.7-0.8-1.5-2.1C3.9,3.5,14.4,0,23.8,0C28.6,0,35,1.3,38.8,4.9
			c4.8,4.5,4.4,10.5,4.4,17.1v15.4c0,4.6,1.9,6.7,3.7,9.2c0.6,0.9,0.8,2,0,2.6C44.8,50.9,41.2,54.1,39.2,55.8L39.2,55.8z"/>
	</g>
</g>
</svg>
