<?xml version="1.0" encoding="utf-8"?>
<!-- Generator: Adobe Illustrator 19.2.1, SVG Export Plug-In . SVG Version: 6.00 Build 0)  -->
<svg version="1.1" id="Layer_1" xmlns="http://www.w3.org/2000/svg" xmlns:xlink="http://www.w3.org/1999/xlink" x="0px" y="0px"
	 viewBox="0 0 69.6 67.5" style="enable-background:new 0 0 69.6 67.5;" xml:space="preserve">
<style type="text/css">
	.st0{fill:#C44E27;}
</style>
<path class="st0" d="M68.4,50.3c-1.5,4-3.5,7.9-8.4,7.9c-4,0-9.2-5.6-16.3-14.3c1.5-1.9,5-8.5,7.3-8.5c1,0,1.8,0.5,1.8,1.3
	c0,0.8-0.3,1.5-0.3,2.7c0,3.2,2.4,5.9,6.3,5.9c4.3,0,6.5-3.6,6.5-7.6c0-4.2-3.4-7.6-7.4-7.6c-7,0-10.9,4.6-15.5,12.1L29.7,25.3
	c5.4-3.8,9.6-7.3,9.6-14.2c0-7.1-4.4-11-12-11c-8.9,0-16.5,5.6-16.5,14.4c0,5.9,3.3,11.3,6.7,16C6.1,37.4,0,42.3,0,50.2
	c0,8.5,6.9,17.3,15.9,17.3c7.8,0,13.2-4.1,19.9-12.2c7.6,8.9,11.5,12.2,17.2,12.2c9.4,0,14.3-8.7,16.6-16.7L68.4,50.3z M28.3,2.3
	c5.6,0,8.7,3.4,8.7,9.5c0,5.3-4.4,9.4-8.6,12c-2.2-3.9-7-10-7-14.6C21.4,5.2,24.1,2.3,28.3,2.3z M23,62.6c-0.4,0.2-1,0.4-1.6,0.5
	c-0.7,0.2-1.4,0.2-2.3,0.2c-0.4,0-0.9-0.1-1.3-0.1c-0.2,0-0.4-0.1-0.6-0.1c-0.3-0.1-0.5-0.1-0.7-0.2c-0.9-0.3-1.9-0.7-2.8-1.2
	c-0.9-0.5-1.8-1.1-2.6-1.8c-0.8-0.7-1.6-1.5-2.3-2.3c-0.7-0.8-1.3-1.8-1.9-2.7c-0.5-1-0.9-2-1.2-3c-0.3-1.1-0.4-2.1-0.3-3.1
	c0.1-1,0.3-1.9,0.6-2.7c0.5-1.6,1.2-2.7,1.8-3.4c0.5-0.8,0.9-1.1,0.9-1.1s-0.2,0.5-0.4,1.4c-0.2,0.9-0.6,2.1-0.7,3.6
	c-0.1,0.7-0.1,1.5,0,2.3c0.1,0.7,0.4,1.7,0.6,2.4c0.7,1.6,1.7,3.2,2.9,4.7c0.6,0.7,1.3,1.4,2,2.1c0.7,0.6,1.4,1.2,2.1,1.7
	c0.7,0.5,1.5,1,2.2,1.3c0.2,0.1,0.4,0.2,0.5,0.3c0.2,0.1,0.4,0.2,0.6,0.2c0.3,0.1,0.7,0.3,1,0.4C20.7,62,22,62,22.9,62
	c0.9,0,1.4,0,1.4,0S23.9,62.2,23,62.6z M26.1,59.4c-6.9,0-15-10.2-15-16.5c0-6.5,2.8-7.4,7.6-10.9l15.9,21.8
	C32.8,56.6,29.8,59.4,26.1,59.4z M53.6,60.7c-0.2,0-0.5,0-0.9,0c-0.4,0-0.7-0.1-1.2-0.1c-0.9-0.2-2-0.5-3.1-1.1
	c-1.1-0.6-2.3-1.4-3.5-2.5c-0.6-0.6-1.1-1.2-1.6-1.8c-0.5-0.6-1.1-1.3-1.6-1.9c-1.1-1.3-2.3-2.7-3.4-4.2c-1.2-1.5-2.4-3-3.6-4.6
	c-1.2-1.6-2.4-3.2-3.6-4.8c-1.2-1.6-2.4-3.3-3.5-4.9c-1.2-1.6-2.2-3.2-3.3-4.8c-1.1-1.6-2-3.1-3-4.6c-0.5-0.7-0.9-1.5-1.3-2.2
	c-0.4-0.7-0.8-1.4-1.2-2.1c-0.2-0.3-0.3-0.7-0.5-1c-0.2-0.4-0.3-0.7-0.4-1c-0.2-0.7-0.5-1.3-0.6-1.9c-0.3-1.2-0.4-2.4-0.3-3.3
	c0.1-0.9,0.3-1.6,0.5-2c0.2-0.4,0.4-0.6,0.4-0.6s-0.1,0.2-0.3,0.7c-0.1,0.4-0.2,1.1-0.1,2c0.1,0.8,0.4,1.8,0.8,2.9
	c0.2,0.5,0.5,1.1,0.8,1.7c0.2,0.3,0.3,0.6,0.5,0.9c0.2,0.3,0.4,0.6,0.6,0.9c0.4,0.6,0.9,1.2,1.3,1.9c0.5,0.6,1,1.3,1.5,2
	c1,1.4,2.1,2.8,3.3,4.3c1.1,1.5,2.3,3,3.5,4.6c1.2,1.6,2.4,3.2,3.6,4.8c1.2,1.6,2.4,3.2,3.5,4.8c1.2,1.6,2.3,3.2,3.4,4.7
	c1.1,1.5,2.1,3,3.1,4.4c0.5,0.7,1,1.4,1.4,2.1c0.5,0.7,0.9,1.3,1.3,1.9c1.8,2.2,3.9,3.6,5.5,4.2c0.8,0.3,1.5,0.5,1.9,0.6
	c0.5,0.1,0.7,0.1,0.7,0.1S54.1,60.6,53.6,60.7z"/>
</svg>
