<?xml version="1.0" encoding="utf-8"?>
<!-- Generator: Adobe Illustrator 19.2.1, SVG Export Plug-In . SVG Version: 6.00 Build 0)  -->
<svg version="1.1" id="Layer_1" xmlns="http://www.w3.org/2000/svg" xmlns:xlink="http://www.w3.org/1999/xlink" x="0px" y="0px"
	 viewBox="0 0 354.6 110.6" style="enable-background:new 0 0 354.6 110.6;" xml:space="preserve">
<style type="text/css">
	.st0{fill-rule:evenodd;clip-rule:evenodd;fill:#4D2956;}
</style>
<g>
	<path class="st0" d="M0.1,68.7h19.2c8.8,0,17.7,1.9,17.7,11.4c0,3.6-2,7.2-6,8.3v0.3c4.9,1.6,8.1,4.9,8.1,9.8
		c0,8.5-8.7,11.4-16.6,11.4H0.1V68.7L0.1,68.7z M16.9,84.6c2.4,0,5.1-0.2,5.1-3.1c0-3.1-3.1-2.8-5.5-2.8h-1.1v5.9H16.9L16.9,84.6z
		 M15.4,100.1h1.9c2.7,0,6.6-0.1,6.6-3.4c0-3.4-4.2-3.4-6.9-3.4h-1.6V100.1L15.4,100.1z"/>
	<polygon class="st0" points="41.8,68.7 75.1,68.7 75.1,80 59.9,80 59.9,83.9 73.8,83.9 73.8,94.6 59.9,94.6 59.9,98.7 75.6,98.7 
		75.6,109.9 41.8,109.9 41.8,68.7 	"/>
	<path class="st0" d="M98.5,68.7l6.2,10.8h0.6c0.6-1.3,1.1-2.6,1.8-3.9l4-6.9h22.7l-19,23.5v17.8H95V92.2L75.6,68.7H98.5L98.5,68.7z
		"/>
	<path class="st0" d="M191.1,89.4c0,13.2-14.8,21.2-33.1,21.2c-18.2,0-33.1-7.9-33.1-21.2c0-13,14.9-21.4,33.1-21.4
		C176.1,68,191.1,76.5,191.1,89.4L191.1,89.4z M146.8,89.6c0,4.7,4.6,7.9,11.2,7.9c6.6,0,11.2-3.2,11.2-7.9c0-4.4-4.3-8-11.2-8
		C151.1,81.6,146.8,85.3,146.8,89.6L146.8,89.6z"/>
	<path class="st0" d="M261.6,68.7h34.3c31.1,0,55,6.1,55,21.2c0,12.3-19.4,20-46.6,20h-42.7V68.7L261.6,68.7z M295.3,97.6h2.1
		c11.2,0,19.8-2.3,19.8-7.7c0-5.8-7.5-8.3-19.8-8.3h-2.1V97.6L295.3,97.6z"/>
	<path class="st0" d="M343.6,69.1c0-3.1,2.4-5.5,5.5-5.5c3.1,0,5.5,2.4,5.5,5.5c0,3.1-2.4,5.5-5.5,5.5
		C346,74.6,343.6,72.2,343.6,69.1L343.6,69.1z M353.8,69.1c0-2.6-2.2-4.6-4.7-4.6c-2.5,0-4.7,2.1-4.7,4.6c0,2.6,2.2,4.6,4.7,4.6
		C351.6,73.8,353.8,71.7,353.8,69.1L353.8,69.1z M351.7,72.1h-1l-1.8-2.8h-1v2.8h-0.8v-6h2.6c1.1,0,2.1,0.3,2.1,1.6
		c0,1.2-0.8,1.6-1.9,1.6L351.7,72.1L351.7,72.1z M348.9,68.5c0.7,0,2.1,0.1,2.1-0.8c0-0.6-0.8-0.7-1.5-0.7h-1.6v1.5H348.9
		L348.9,68.5z"/>
	<polygon class="st0" points="216.1,68.7 193.8,68.7 193.8,110 216,110 216,89 235.6,110 257.8,110 257.8,68.7 235.6,68.7 
		235.6,90.1 216.1,68.7 	"/>
	<path class="st0" d="M0,2.3h6.7c10.3,0,20,2.7,20,15c0,4-2.2,8.6-5.9,10.4v0.1c6.4,1.2,10.9,7.5,10.9,13.8c0,10.9-9.3,15.3-19,15.3
		H0V2.3L0,2.3z M6.8,26.5h1.7c6.4,0,11.7-1.3,11.7-9.1c0-7.7-5.2-9-11.6-9H6.8V26.5L6.8,26.5z M6.8,50.8H12c6.3,0,12.9-1.9,12.9-9.6
		c0-7.7-7.8-9.3-13.9-9.3H6.8V50.8L6.8,50.8z"/>
	<polygon class="st0" points="35.7,2.3 65,2.3 65,8.5 42.5,8.5 42.5,23.8 64.4,23.8 64.4,30.1 42.5,30.1 42.5,50.7 65,50.7 65,56.9 
		35.7,56.9 35.7,2.3 	"/>
	<path class="st0" d="M71.4,2.3h11.3c16.7,0,30.6,8.8,30.6,27c0,18.6-13.6,27.6-30.9,27.6H71.4V2.3L71.4,2.3z M78.2,50.7h2.4
		c13.9,0,25.9-5.2,25.9-21.1c0-15.9-12-21.1-25.9-21.1h-2.4V50.7L78.2,50.7z"/>
	<path class="st0" d="M132.5,2.3h6.7c10.3,0,20,2.7,20,15c0,4-2.2,8.6-5.9,10.4v0.1c6.4,1.2,10.9,7.5,10.9,13.8
		c0,10.9-9.3,15.3-19,15.3h-12.7V2.3L132.5,2.3z M139.3,26.5h1.7c6.4,0,11.7-1.3,11.7-9.1c0-7.7-5.2-9-11.6-9h-1.9V26.5L139.3,26.5z
		 M139.3,50.8h5.2c6.3,0,12.9-1.9,12.9-9.6c0-7.7-7.8-9.3-13.9-9.3h-4.2V50.8L139.3,50.8z"/>
	<path class="st0" d="M177.4,43.2l-6.2,13.7h-7.3L189.9,0L216,56.9h-7.3l-6.2-13.7H177.4L177.4,43.2z M189.9,14.9L180.2,37h19.4
		L189.9,14.9L189.9,14.9z"/>
	<polygon class="st0" points="228,56.9 221.2,56.9 221.2,8.5 208.3,8.5 208.3,2.3 241,2.3 241,8.5 228,8.5 228,56.9 	"/>
	<polygon class="st0" points="277.5,24.3 277.5,2.3 284.3,2.3 284.3,56.9 277.5,56.9 277.5,30.7 251.5,30.7 251.5,56.9 244.7,56.9 
		244.7,2.3 251.5,2.3 251.5,24.3 277.5,24.3 	"/>
	<path class="st0" d="M335.2,49.5c-4.1,4.9-9.9,8.5-16.4,8.5c-9.1,0-16.7-6.7-16.7-16.1c0-7,4.3-10.7,9.6-14.5l3.4-2.5
		c-3.1-3.3-6-7.3-6-12c0-7.5,5.4-11.9,12.6-11.9c6.7,0,12.6,4.2,12.6,11.4c0,6.2-5.4,10.3-9.9,13.6l11.4,13.8l6.4-7.4l4.3,4.5
		l-6.7,7.8l9.8,12.1h-8.4L335.2,49.5L335.2,49.5z M318.4,30.4c-3.8,2.6-9.9,6.3-9.9,11.5c0,5.2,4.9,10.1,10.1,10.1
		c5.1,0,9.1-3.8,12.5-7.2L319,30L318.4,30.4L318.4,30.4z M321.4,20.9c2.8-2.2,6.5-4.4,6.5-8.4c0-3.8-2.8-5.9-6.4-5.9
		c-3.3,0-6.1,2.3-6.1,5.8c0,2.8,1.7,4.8,3.3,6.8l1.8,2.3L321.4,20.9L321.4,20.9z"/>
</g>
</svg>
