<?xml version="1.0" encoding="utf-8"?>
<!-- Generator: Adobe Illustrator 19.2.1, SVG Export Plug-In . SVG Version: 6.00 Build 0)  -->
<svg version="1.1" id="Layer_1" xmlns="http://www.w3.org/2000/svg" xmlns:xlink="http://www.w3.org/1999/xlink" x="0px" y="0px"
	 viewBox="0 0 419.4 270.8" style="enable-background:new 0 0 419.4 270.8;" xml:space="preserve">
<style type="text/css">
	.st0{fill:#FECF09;}
	.st1{fill:#E82329;}
	.st2{fill:#969F3C;}
	.st3{fill:#C44E27;}
</style>
<g>
	<g>
		<path class="st0" d="M286,52.5c0.1,0.5,0.5,0.8,1,0.8c0.1,0,0.1,0,0.2,0c0.5-0.1,0.9-0.6,0.8-1.2c-0.6-3-1.1-6-1.5-8.9
			c2.1-1.5,7-5.7,6.6-13.3c-0.2-3.5-1.1-9-2.6-14.8c-2.3-9.3-3.2-9.5-3.7-9.7c0,0,0,0,0,0c0,0,0,0,0,0c0,0,0,0-0.1,0
			c-0.1,0-0.2,0-0.3,0c0,0-0.1,0-0.1,0c-0.1,0-0.2,0.1-0.2,0.1c0,0,0,0-0.1,0c-0.1,0.1-0.2,0.1-0.2,0.2c0,0,0,0,0,0c0,0,0,0,0,0
			c-0.6,0.8-10.7,15.5-10.9,24.3c-0.2,10.2,8,13.1,9.7,13.6C284.9,46.6,285.4,49.5,286,52.5z M282.6,14.7c0.6,0.4,0.8,0.5,1.6,1.1
			c-0.6,5.6-0.8,10.9-0.7,16.3c-2.8-1.4-3.6-1.8-6.5-3.7C277.7,24.2,280.2,18.9,282.6,14.7z M287,9.8c0.8,2.7,2,7,2.8,11.3
			c-1.8,0.5-2.3,0.6-4.2,1.2C285.8,18.2,286.3,14.1,287,9.8z M284.4,13.5c-0.3-0.2-0.5-0.3-0.9-0.6c0.4-0.7,0.8-1.4,1.2-2
			C284.7,11.8,284.5,12.7,284.4,13.5z M286.1,41c-0.6-5.6-0.9-11.1-0.6-16.6c0,0,0.1,0,0.1,0c2.3-0.7,2.7-0.8,4.6-1.3
			c0.5,2.5,0.8,5,0.9,7C291.4,35.7,288.2,39.3,286.1,41z M276.8,30.6c2.6,1.6,3.4,2,6.8,3.7c0.1,2.4,0.3,4.9,0.6,7.3
			C282,40.8,276.9,38.1,276.8,30.6z"/>
		<path class="st1" d="M46.6,203c-3,0.7-5.9,1.3-8.8,1.7c-1.5-2.1-5.9-6.9-13.5-6.3c-3.5,0.3-9,1.4-14.7,2.9c-9.3,2.5-9.5,3.4-9.6,4
			c0,0,0,0,0,0c0,0,0,0,0,0c0,0,0,0,0,0.1c0,0.1,0,0.2,0,0.3c0,0,0,0.1,0,0.1c0,0.1,0.1,0.2,0.1,0.2c0,0,0,0,0,0.1
			c0.1,0.1,0.1,0.2,0.2,0.2c0,0,0,0,0,0c0,0,0,0,0,0c0.9,0.6,15.7,10.3,24.6,10.2c10.2-0.1,12.9-8.3,13.4-10c2.8-0.5,5.7-1,8.6-1.7
			c0.5-0.1,0.8-0.5,0.8-1c0-0.1,0-0.1,0-0.2C47.7,203.2,47.2,202.9,46.6,203z M24.5,200.4c5.7-0.4,9.4,2.7,11.1,4.7
			c-5.6,0.8-11.1,1.1-16.6,1.1c0,0,0-0.1,0-0.1c-0.8-2.3-0.9-2.7-1.4-4.5C20,200.9,22.5,200.5,24.5,200.4z M23.2,214.5
			c-4.2-0.6-9.6-2.9-13.9-5.2c0.4-0.6,0.5-0.8,1-1.6c5.6,0.5,10.9,0.6,16.3,0.3C25.4,210.7,24.9,211.5,23.2,214.5z M5.5,207.1
			c0.9,0.1,1.8,0.2,2.6,0.3c-0.2,0.3-0.3,0.5-0.6,0.9C6.9,207.9,6.2,207.5,5.5,207.1z M15.6,201.9c0.5,1.8,0.7,2.3,1.3,4.2
			c-4.1-0.1-8.2-0.5-12.5-1.1C7,204.1,11.3,202.8,15.6,201.9z M25.4,214.6c1.5-2.6,2-3.5,3.5-6.9c2.4-0.2,4.9-0.5,7.3-0.8
			C35.5,209.2,32.9,214.4,25.4,214.6z"/>
		<path class="st2" d="M2.7,97.6C2.7,97.6,2.7,97.7,2.7,97.6C2.7,97.7,2.7,97.7,2.7,97.6C2.7,97.7,2.7,97.7,2.7,97.6
			c0.1,0.6,0.4,1.5,9.8,3.6c5.8,1.3,11.4,2.1,14.9,2.2c7.6,0.2,11.8-4.8,13.2-7c2.9,0.3,5.9,0.7,8.9,1.3c0.5,0.1,1.1-0.3,1.1-0.8
			c0-0.1,0-0.1,0-0.2c0-0.5-0.3-0.9-0.8-0.9c-3-0.5-5.9-0.9-8.7-1.2c-0.5-1.7-3.7-9.8-13.9-9.3C18.3,85.6,4,96.1,3.1,96.7
			c0,0,0,0,0,0c0,0,0,0,0,0C3,96.7,3,96.8,2.9,96.9c0,0,0,0,0,0.1c0,0.1-0.1,0.2-0.1,0.2c0,0,0,0.1,0,0.1
			C2.7,97.4,2.7,97.5,2.7,97.6z M10.2,94.4c0.3,0.4,0.4,0.6,0.6,0.8c-0.9,0.1-1.7,0.3-2.6,0.4C8.8,95.2,9.5,94.8,10.2,94.4z
			 M25.5,87.4c1.9,2.9,2.4,3.7,3.8,6.4c-5.4,0-10.8,0.3-16.3,1.1c-0.6-0.8-0.7-1-1.1-1.5C16.1,90.8,21.3,88.2,25.5,87.4z M7.1,97.8
			c4.2-0.8,8.3-1.3,12.4-1.7c-0.5,1.9-0.7,2.4-1.1,4.2C14.1,99.6,9.8,98.6,7.1,97.8z M27.4,101.4c-2-0.1-4.5-0.3-7-0.7
			c0.4-1.9,0.5-2.3,1.2-4.6c0,0,0-0.1,0-0.1c5.5-0.3,11-0.3,16.6,0.2C36.6,98.3,33.2,101.6,27.4,101.4z M38.9,94.3
			c-2.5-0.2-4.9-0.4-7.3-0.5c-1.7-3.3-2.2-4.1-3.9-6.7C35.1,87,38,92.1,38.9,94.3z"/>
		<path class="st0" d="M63.5,170.6c-3-0.5-5.9-0.9-8.7-1.2c-0.5-1.7-3.7-9.8-13.9-9.3c-8.9,0.4-23.2,10.9-24.1,11.5c0,0,0,0,0,0
			c0,0,0,0,0,0c-0.1,0.1-0.2,0.1-0.2,0.2c0,0,0,0,0,0.1c0,0.1-0.1,0.2-0.1,0.2c0,0,0,0.1,0,0.1c0,0.1,0,0.2,0,0.3c0,0,0,0,0,0.1
			c0,0,0,0,0,0c0,0,0,0,0,0c0.1,0.5,0.4,1.4,9.8,3.5c5.8,1.3,11.4,2.1,14.9,2.2c7.6,0.2,11.8-4.8,13.2-7c2.9,0.3,5.9,0.7,8.9,1.3
			c0.5,0.1,1.1-0.3,1.1-0.8c0-0.1,0-0.1,0-0.2C64.3,171.1,64,170.7,63.5,170.6z M52.6,169.1c-2.5-0.2-4.9-0.4-7.3-0.5
			c-1.7-3.3-2.2-4.1-3.9-6.7C48.9,161.9,51.7,166.9,52.6,169.1z M26.7,169.7c-0.6-0.8-0.7-1-1.1-1.5c4.2-2.5,9.4-5.1,13.6-5.9
			c1.9,2.9,2.4,3.7,3.8,6.4C37.6,168.6,32.2,169,26.7,169.7z M23.9,169.2c0.3,0.4,0.4,0.6,0.6,0.8c-0.9,0.1-1.7,0.3-2.6,0.4
			C22.5,170.1,23.2,169.6,23.9,169.2z M20.9,172.7c4.2-0.8,8.3-1.3,12.4-1.7c-0.5,1.9-0.7,2.4-1.1,4.2
			C27.9,174.5,23.6,173.4,20.9,172.7z M41.1,176.3c-2-0.1-4.5-0.3-7-0.7c0.4-1.9,0.5-2.3,1.2-4.6c0,0,0-0.1,0-0.1
			c5.5-0.3,11-0.3,16.6,0.2C50.4,173.1,46.9,176.4,41.1,176.3z"/>
		<path class="st0" d="M78,51.8c-1.6-0.1-3.2-0.1-4.9,0c-1.3-2-4.4-4.9-9-4.1c-0.2,0-0.4,0.1-0.6,0.2c-0.1,0-0.1,0-0.2,0
			c-5.7,1.6-11.4,8.9-11.6,9.2c0,0,0,0,0,0c0,0.1-0.1,0.1-0.1,0.2c0,0,0,0.1,0,0.1c0,0.1,0,0.2,0,0.3c0,0.1,0,0.2,0.1,0.3
			c0,0,0,0,0,0.1c0,0,0,0,0,0c0,0,0,0,0,0c0.1,0.1,0.1,0.2,0.2,0.3c0,0,0,0,0,0c0.1,0.1,0.2,0.1,0.3,0.2c0,0,0,0,0.1,0
			c0,0,0.1,0,0.1,0c0.3,0.1,8.5,1.9,14.2,0.8c4.3-0.8,6.3-3.8,6.8-5.8c1.5-0.1,3-0.1,4.6,0c0.5,0,1-0.4,1-0.9
			C79,52.3,78.6,51.8,78,51.8z M70.8,51.9c-1,0.1-2.1,0.2-3.1,0.3c-0.9-1.2-1.4-1.8-2.1-2.7C68.1,49.5,69.8,50.8,70.8,51.9z
			 M60.5,57.8c-1.6-0.1-3.2-0.3-4.5-0.5c1.6-0.6,3.1-1.1,4.7-1.6C60.6,56.5,60.5,57.1,60.5,57.8z M56.8,54.5
			c0.1,0.1,0.1,0.2,0.2,0.2c0,0,0.1,0.1,0.1,0.1c-0.3,0.1-0.7,0.2-1,0.3C56.4,54.9,56.6,54.7,56.8,54.5z M61.6,53.4c0,0-0.1,0-0.1,0
			c-0.8,0.2-1.7,0.5-2.5,0.7c-0.1-0.2-0.3-0.4-0.4-0.6c-0.1-0.2-0.2-0.3-0.3-0.5c1.5-1.3,3.3-2.5,5-3.1c0.9,1.1,1.4,1.7,2.1,2.6
			C64.2,52.9,62.9,53.1,61.6,53.4z M66.2,57.6c-1.2,0.2-2.4,0.3-3.7,0.3c0.1-0.9,0.2-1.7,0.3-2.7c2.8-0.7,5.6-1.1,8.5-1.4
			C70.7,55.1,69.3,57,66.2,57.6z"/>
		<path class="st0" d="M223.6,0.4C223.6,0.4,223.6,0.4,223.6,0.4c-0.1-0.1-0.2-0.2-0.2-0.3c0,0,0,0-0.1,0c-0.1,0-0.2-0.1-0.2-0.1
			c0,0-0.1,0-0.1,0c-0.1,0-0.2,0-0.3,0c0,0,0,0-0.1,0c0,0,0,0,0,0c0,0,0,0,0,0c-0.5,0.1-1.4,0.3-3.7,9.7c-1.4,5.8-2.4,11.3-2.6,14.8
			c-0.4,7.6,4.5,11.9,6.6,13.3c-0.4,2.9-0.9,5.8-1.5,8.9c-0.1,0.5,0.2,1.1,0.8,1.2c0.1,0,0.1,0,0.2,0c0.5,0,0.9-0.3,1-0.8
			c0.6-3,1.1-5.8,1.5-8.7c1.7-0.5,9.8-3.5,9.7-13.6C234.3,15.9,224.2,1.3,223.6,0.4C223.6,0.4,223.6,0.4,223.6,0.4z M232.3,23
			c-2.9,1.8-3.7,2.3-6.5,3.7c0.2-5.4,0-10.8-0.7-16.3c0.8-0.5,1-0.7,1.6-1.1C229.2,13.5,231.7,18.8,232.3,23z M223.8,16.8
			c-1.9-0.6-2.4-0.7-4.2-1.2c0.9-4.3,2-8.6,2.8-11.3C223.1,8.7,223.5,12.8,223.8,16.8z M224.9,8.1c-0.1-0.9-0.2-1.7-0.4-2.6
			c0.4,0.6,0.8,1.3,1.2,2C225.4,7.8,225.2,7.9,224.9,8.1z M218.3,24.6c0.1-2,0.4-4.4,0.9-7c1.9,0.5,2.2,0.6,4.6,1.3c0,0,0.1,0,0.1,0
			c0.2,5.5,0,11-0.6,16.6C221.2,33.9,218,30.3,218.3,24.6z M225.1,36.2c0.3-2.5,0.5-4.9,0.6-7.3c3.3-1.7,4.2-2.1,6.8-3.7
			C232.5,32.6,227.4,35.4,225.1,36.2z"/>
		<path class="st0" d="M184.1,32.9C184.1,32.9,184.1,32.9,184.1,32.9c-0.1-0.1-0.2-0.2-0.2-0.3c0,0,0,0-0.1,0
			c-0.1,0-0.2-0.1-0.2-0.1c0,0-0.1,0-0.1,0c-0.1,0-0.2,0-0.3,0c0,0,0,0-0.1,0c0,0,0,0,0,0c0,0,0,0,0,0c-0.5,0.1-1.4,0.3-3.7,9.7
			c-1.4,5.8-2.4,11.3-2.6,14.8c-0.4,7.6,4.5,11.9,6.6,13.3c-0.4,2.9-0.9,5.8-1.5,8.9c-0.1,0.5,0.2,1.1,0.8,1.2c0.1,0,0.1,0,0.2,0
			c0.5,0,0.9-0.3,1-0.8c0.6-3,1.1-5.8,1.5-8.7c1.7-0.5,9.8-3.5,9.7-13.6C194.8,48.4,184.7,33.8,184.1,32.9
			C184.1,32.9,184.1,32.9,184.1,32.9z M192.8,55.5c-2.9,1.8-3.7,2.3-6.5,3.7c0.2-5.4,0-10.8-0.7-16.3c0.8-0.5,1-0.7,1.6-1.1
			C189.6,46,192.1,51.3,192.8,55.5z M184.2,49.3c-1.9-0.6-2.4-0.7-4.2-1.2c0.9-4.3,2-8.6,2.8-11.3C183.5,41.1,184,45.3,184.2,49.3z
			 M185.4,40.6c-0.1-0.9-0.2-1.7-0.4-2.6c0.4,0.6,0.8,1.3,1.2,2C185.9,40.3,185.7,40.4,185.4,40.6z M178.7,57.1c0.1-2,0.4-4.4,0.9-7
			c1.9,0.5,2.2,0.6,4.6,1.3c0,0,0.1,0,0.1,0c0.2,5.5,0,11-0.6,16.6C181.7,66.4,178.4,62.8,178.7,57.1z M185.6,68.7
			c0.3-2.5,0.5-4.9,0.6-7.3c3.3-1.7,4.2-2.1,6.8-3.7C192.9,65.1,187.8,67.9,185.6,68.7z"/>
		<path class="st0" d="M135.7,240.7c0.2-10.2-8-13.1-9.7-13.6c-0.4-2.8-0.9-5.7-1.5-8.7c-0.1-0.5-0.5-0.8-1-0.8c-0.1,0-0.1,0-0.2,0
			c-0.5,0.1-0.9,0.6-0.8,1.2c0.6,3,1.1,6,1.5,8.9c-2.1,1.5-7,5.7-6.6,13.3c0.2,3.5,1.1,9,2.6,14.8c2.3,9.3,3.2,9.5,3.7,9.7
			c0,0,0,0,0,0c0,0,0,0,0,0c0,0,0,0,0.1,0c0.1,0,0.2,0,0.3,0c0,0,0.1,0,0.1,0c0.1,0,0.2-0.1,0.2-0.1c0,0,0,0,0.1,0
			c0.1-0.1,0.2-0.1,0.2-0.2c0,0,0,0,0,0c0,0,0,0,0,0C125.5,264.2,135.6,249.5,135.7,240.7z M128,256.2c-0.6-0.4-0.8-0.5-1.6-1.1
			c0.6-5.6,0.8-10.9,0.7-16.3c2.8,1.4,3.6,1.8,6.5,3.7C132.9,246.7,130.4,251.9,128,256.2z M123.6,261c-0.8-2.7-2-7-2.8-11.3
			c1.8-0.5,2.3-0.6,4.2-1.2C124.7,252.7,124.3,256.8,123.6,261z M126.2,257.3c0.3,0.2,0.5,0.3,0.9,0.6c-0.4,0.7-0.8,1.4-1.2,2
			C125.9,259.1,126,258.2,126.2,257.3z M133.7,240.2c-2.6-1.6-3.4-2-6.8-3.7c-0.1-2.4-0.3-4.9-0.6-7.3
			C128.6,230,133.7,232.8,133.7,240.2z M124.4,229.9c0.6,5.6,0.9,11.1,0.6,16.6c0,0-0.1,0-0.1,0c-2.3,0.7-2.7,0.8-4.6,1.3
			c-0.5-2.5-0.8-5-0.9-7C119.2,235.1,122.4,231.5,124.4,229.9z"/>
		<path class="st0" d="M169.6,233c0.4-2.9,0.9-5.8,1.5-8.9c0.1-0.5-0.2-1.1-0.8-1.2c-0.1,0-0.1,0-0.2,0c-0.5,0-0.9,0.3-1,0.8
			c-0.6,3-1.1,5.8-1.5,8.7c-1.7,0.5-9.8,3.5-9.7,13.6c0.2,8.9,10.3,23.5,10.9,24.3c0,0,0,0,0,0c0,0,0,0,0,0c0.1,0.1,0.1,0.2,0.2,0.2
			c0,0,0,0,0.1,0c0.1,0,0.2,0.1,0.2,0.1c0,0,0.1,0,0.1,0c0.1,0,0.2,0,0.3,0c0,0,0,0,0.1,0c0,0,0,0,0,0c0,0,0,0,0,0
			c0.5-0.1,1.4-0.3,3.7-9.7c1.4-5.8,2.4-11.3,2.6-14.8C176.7,238.8,171.7,234.5,169.6,233z M160.2,247.9c2.9-1.8,3.7-2.3,6.5-3.7
			c-0.2,5.4,0,10.8,0.7,16.3c-0.8,0.5-1,0.7-1.6,1.1C163.4,257.3,160.9,252.1,160.2,247.9z M167.6,262.7c0.1,0.9,0.2,1.7,0.4,2.6
			c-0.4-0.6-0.8-1.3-1.2-2C167.2,263.1,167.4,262.9,167.6,262.7z M168.8,254c1.9,0.6,2.4,0.7,4.2,1.2c-0.9,4.3-2,8.6-2.8,11.3
			C169.5,262.2,169,258.1,168.8,254z M167.4,234.6c-0.3,2.5-0.5,4.9-0.6,7.3c-3.3,1.7-4.2,2.1-6.8,3.7
			C160.1,238.2,165.2,235.5,167.4,234.6z M174.3,246.3c-0.1,2-0.5,4.4-0.9,7c-1.9-0.5-2.2-0.6-4.6-1.3c0,0-0.1,0-0.1,0
			c-0.2-5.5,0-11,0.6-16.6C171.4,237,174.6,240.5,174.3,246.3z"/>
		<path class="st0" d="M209.2,200.6c0.4-2.9,0.9-5.8,1.5-8.9c0.1-0.5-0.2-1.1-0.8-1.2c-0.1,0-0.1,0-0.2,0c-0.5,0-0.9,0.3-1,0.8
			c-0.6,3-1.1,5.8-1.5,8.7c-1.7,0.5-9.8,3.5-9.7,13.6c0.2,8.9,10.3,23.5,10.9,24.3c0,0,0,0,0,0c0,0,0,0,0,0c0.1,0.1,0.1,0.2,0.2,0.2
			c0,0,0,0,0.1,0c0.1,0,0.2,0.1,0.2,0.1c0,0,0.1,0,0.1,0c0.1,0,0.2,0,0.3,0c0,0,0,0,0.1,0c0,0,0,0,0,0c0,0,0,0,0,0
			c0.5-0.1,1.4-0.3,3.7-9.7c1.4-5.8,2.4-11.3,2.6-14.8C216.2,206.3,211.3,202,209.2,200.6z M199.8,215.4c2.9-1.8,3.7-2.3,6.5-3.7
			c-0.2,5.4,0,10.8,0.7,16.3c-0.8,0.5-1,0.7-1.6,1.1C202.9,224.9,200.4,219.6,199.8,215.4z M207.2,230.2c0.1,0.9,0.2,1.7,0.4,2.6
			c-0.4-0.6-0.8-1.3-1.2-2C206.7,230.6,206.9,230.4,207.2,230.2z M208.3,221.5c1.9,0.6,2.4,0.7,4.2,1.2c-0.9,4.3-2,8.6-2.8,11.3
			C209,229.7,208.6,225.6,208.3,221.5z M207,202.1c-0.3,2.5-0.5,4.9-0.6,7.3c-3.3,1.7-4.2,2.1-6.8,3.7
			C199.6,205.7,204.7,203,207,202.1z M213.8,213.8c-0.1,2-0.5,4.4-0.9,7c-1.9-0.5-2.2-0.6-4.6-1.3c0,0-0.1,0-0.1,0
			c-0.2-5.5,0-11,0.6-16.6C210.9,204.5,214.1,208,213.8,213.8z"/>
		<path class="st0" d="M386,207.5c0.4-2.9,0.9-5.8,1.5-8.9c0.1-0.5-0.2-1.1-0.8-1.2c-0.1,0-0.1,0-0.2,0c-0.5,0-0.9,0.3-1,0.8
			c-0.6,3-1.1,5.8-1.5,8.7c-1.7,0.5-9.8,3.5-9.7,13.6c0.2,8.9,10.3,23.5,10.9,24.3c0,0,0,0,0,0c0,0,0,0,0,0c0.1,0.1,0.1,0.2,0.2,0.2
			c0,0,0,0,0.1,0c0.1,0,0.2,0.1,0.2,0.1c0,0,0.1,0,0.1,0c0.1,0,0.2,0,0.3,0c0,0,0,0,0.1,0c0,0,0,0,0,0c0,0,0,0,0,0
			c0.5-0.1,1.4-0.3,3.7-9.7c1.4-5.8,2.4-11.3,2.6-14.8C393,213.2,388.1,208.9,386,207.5z M376.6,222.3c2.9-1.8,3.7-2.3,6.5-3.7
			c-0.2,5.4,0,10.8,0.7,16.3c-0.8,0.5-1,0.7-1.6,1.1C379.7,231.8,377.2,226.5,376.6,222.3z M384,237.2c0.1,0.9,0.2,1.7,0.4,2.6
			c-0.4-0.6-0.8-1.3-1.2-2C383.5,237.5,383.7,237.3,384,237.2z M385.1,228.5c1.9,0.6,2.4,0.7,4.2,1.2c-0.9,4.3-2,8.6-2.8,11.3
			C385.8,236.6,385.4,232.5,385.1,228.5z M383.8,209c-0.3,2.5-0.5,4.9-0.6,7.3c-3.3,1.7-4.2,2.1-6.8,3.7
			C376.4,212.6,381.5,209.9,383.8,209z M390.6,220.7c-0.1,2-0.4,4.4-0.9,7c-1.9-0.5-2.2-0.6-4.6-1.3c0,0-0.1,0-0.1,0
			c-0.2-5.5,0-11,0.6-16.6C387.7,211.4,390.9,214.9,390.6,220.7z"/>
		<path class="st0" d="M384.2,31.3c2.9,0.3,5.9,0.7,8.9,1.3c0.5,0.1,1.1-0.3,1.1-0.8c0-0.1,0-0.1,0-0.2c0-0.5-0.3-0.9-0.8-0.9
			c-3-0.5-5.9-0.9-8.7-1.2c-0.5-1.7-3.7-9.8-13.9-9.3c-8.9,0.4-23.5,11-24.1,11.5c-0.1,0.1-0.2,0.1-0.2,0.2c0,0,0,0,0,0.1
			c0,0.1-0.1,0.2-0.1,0.2c0,0,0,0.1,0,0.1c0,0.1,0,0.2,0,0.3c0,0,0,0,0,0.1c0,0,0,0,0,0c0,0,0,0,0,0c0.1,0.5,0.4,1.4,9.8,3.5
			c5.8,1.3,11.4,2.1,14.9,2.2C378.7,38.5,382.8,33.4,384.2,31.3z M371.1,36.3c-2-0.1-4.5-0.3-7-0.7c0.4-1.9,0.5-2.3,1.2-4.6
			c0,0,0-0.1,0-0.1c5.5-0.3,11-0.3,16.6,0.2C380.4,33.1,376.9,36.4,371.1,36.3z M353.9,29.2c0.3,0.4,0.4,0.6,0.6,0.8
			c-0.9,0.1-1.7,0.3-2.6,0.4C352.5,30.1,353.2,29.6,353.9,29.2z M356.7,29.7c-0.6-0.8-0.7-1-1.1-1.5c4.2-2.5,9.4-5.1,13.6-5.9
			c1.9,2.9,2.4,3.7,3.8,6.4C367.6,28.6,362.2,29,356.7,29.7z M382.6,29.1c-2.5-0.2-4.9-0.4-7.3-0.5c-1.7-3.3-2.2-4.1-3.9-6.7
			C378.8,21.9,381.7,26.9,382.6,29.1z M350.9,32.7c4.2-0.8,8.3-1.3,12.4-1.7c-0.5,1.9-0.7,2.4-1.1,4.2
			C357.9,34.5,353.6,33.4,350.9,32.7z"/>
		<path class="st0" d="M384.8,113.1c7.6,0.2,11.8-4.8,13.2-7c2.9,0.3,5.9,0.7,8.9,1.3c0.5,0.1,1.1-0.3,1.1-0.8c0-0.1,0-0.1,0-0.2
			c0-0.5-0.3-0.9-0.8-0.9c-3-0.5-5.9-0.9-8.7-1.2c-0.5-1.7-3.7-9.8-13.9-9.3c-8.9,0.4-23.2,10.9-24.1,11.5c0,0,0,0,0,0c0,0,0,0,0,0
			c-0.1,0.1-0.2,0.1-0.2,0.2c0,0,0,0,0,0.1c0,0.1-0.1,0.2-0.1,0.2c0,0,0,0.1,0,0.1c0,0.1,0,0.2,0,0.3c0,0,0,0,0,0.1c0,0,0,0,0,0
			c0,0,0,0,0,0c0.1,0.5,0.4,1.4,9.8,3.5C375.8,112.2,381.3,113,384.8,113.1z M367.6,104.1c0.3,0.4,0.4,0.6,0.6,0.8
			c-0.9,0.1-1.7,0.3-2.6,0.4C366.3,104.9,366.9,104.5,367.6,104.1z M382.9,97.1c1.9,2.9,2.4,3.7,3.8,6.4c-5.4,0-10.8,0.3-16.3,1.1
			c-0.6-0.8-0.7-1-1.1-1.5C373.5,100.5,378.7,97.9,382.9,97.1z M377,105.8c-0.5,1.9-0.7,2.4-1.1,4.2c-4.3-0.8-8.6-1.8-11.3-2.5
			C368.8,106.7,372.9,106.2,377,105.8z M384.9,111.1c-2-0.1-4.5-0.3-7-0.7c0.4-1.9,0.5-2.3,1.2-4.6c0,0,0-0.1,0-0.1
			c5.5-0.3,11-0.3,16.6,0.2C394.1,108,390.6,111.3,384.9,111.1z M396.3,104c-2.5-0.2-4.9-0.4-7.3-0.5c-1.7-3.3-2.2-4.1-3.9-6.7
			C392.6,96.7,395.5,101.8,396.3,104z"/>
		<path class="st0" d="M408.3,197.2c-0.7-1.5-1.5-2.9-2.3-4.3c1.2-2.1,2.2-6.2-0.7-9.9c-0.1-0.2-0.3-0.3-0.5-0.5
			c0,0-0.1-0.1-0.1-0.1c-4.1-4.2-13.2-5.8-13.6-5.9c0,0,0,0,0,0c-0.1,0-0.1,0-0.2,0c0,0-0.1,0-0.1,0c-0.1,0-0.2,0.1-0.3,0.1
			c-0.1,0.1-0.2,0.1-0.2,0.2c0,0,0,0,0,0c0,0,0,0,0,0c0,0,0,0,0,0c-0.1,0.1-0.1,0.2-0.1,0.3c0,0,0,0,0,0c0,0.1,0,0.2,0,0.3
			c0,0,0,0.1,0,0.1c0,0,0,0.1,0,0.1c0.1,0.3,2.3,8.4,6,12.9c2.8,3.4,6.3,3.7,8.3,3.3c0.8,1.3,1.5,2.6,2.2,4c0.2,0.5,0.8,0.7,1.3,0.5
			C408.3,198.3,408.5,197.7,408.3,197.2z M404.7,190.9c-0.6-0.9-1.2-1.7-1.8-2.6c0.6-1.4,0.9-2.1,1.4-3.2
			C405.6,187.3,405.2,189.5,404.7,190.9z M392.9,180.4c1.3,1.1,2.5,2.2,3.6,3.4c-0.6,0.3-1.2,0.5-1.9,0.8
			C393.9,183.1,393.4,181.6,392.9,180.4z M395.7,180.1c0,0,0,0.1-0.1,0.1c-0.3-0.2-0.5-0.5-0.8-0.7c0.3,0.1,0.6,0.2,1,0.3
			C395.8,179.9,395.8,180,395.7,180.1z M399,183.6C399,183.5,399,183.5,399,183.6c-0.7-0.7-1.3-1.3-1.9-1.9c0.1-0.2,0.2-0.4,0.3-0.6
			c0.1-0.2,0.2-0.3,0.3-0.5c1.9,0.7,3.8,1.7,5.1,2.9c-0.6,1.3-0.8,2-1.3,3.1C400.8,185.5,399.9,184.5,399,183.6z M397.6,189.5
			c-0.7-0.9-1.4-2-2-3.1c0.9-0.4,1.6-0.6,2.5-1c1.9,2.1,3.7,4.4,5.2,6.8C401.9,192.3,399.6,192,397.6,189.5z"/>
	</g>
	<g>
		<path class="st2" d="M112,26.8c-1.7-0.6-3.4-0.3-4.9,0.7c-1.5,1-2.4,2.6-2.4,4.3c-0.1,1.8,0.4,3.5,1.6,5.2
			c3.3,4.9,11.8,8.3,12.2,8.4c0.1,0,0.2,0.1,0.4,0.1c0.2,0,0.4-0.1,0.6-0.2c0.3-0.2,0.4-0.5,0.4-0.8c0-0.4-0.2-9.5-3.5-14.4
			C115.1,28.5,113.7,27.3,112,26.8z M107.8,35.8c-0.9-1.3-1.3-2.6-1.2-4c0-1.1,0.6-2.1,1.6-2.8c0.6-0.4,1.3-0.7,2.1-0.7
			c0.4,0,0.7,0.1,1.1,0.2c1.3,0.4,2.4,1.3,3.3,2.6c2.2,3.2,2.9,9,3.1,11.7C115.2,41.8,110.1,39.1,107.8,35.8z"/>
		<path class="st2" d="M68.1,42.3c2.1,1.4,5.7,2.1,8.4,1.8c0.9-0.1,1.6-0.6,1.9-1.4c0.4-0.8,0.3-1.7-0.2-2.4c0.4,0,0.8-0.2,1.1-0.4
			c0.9-0.6,1.3-1.7,1.1-2.8c-0.6-2.2-1.9-3.9-3.5-4.8c-4-2.1-11.9-4.9-14.4-5.7c-0.5-0.2-1-0.1-1.4,0.3c-0.4,0.3-0.6,0.7-0.6,1.2
			c0,0.1,0,0.1,0,0.2C60.9,31.1,63.7,39.5,68.1,42.3z M76,34.1c1.1,0.6,2,1.9,2.5,3.6c0.1,0.3-0.1,0.5-0.2,0.6
			c-0.1,0.1-0.3,0.2-0.6,0c-1.2-1-2.7-2-4.4-3.1c-0.6-0.3-1.3-0.2-1.7,0.4c-0.4,0.6-0.2,1.3,0.3,1.7c2.9,2.1,4.2,3.5,4.8,4.3
			c0.1,0.1,0.1,0.2,0.1,0.2c0,0.1,0,0.2,0,0.2c0,0.1-0.1,0.2-0.4,0.3c-2.3,0.3-5.4-0.4-7.2-1.5c-3.3-2.1-5.9-8.7-6.6-11.8
			C65.4,29.7,72.4,32.2,76,34.1z"/>
		<path class="st2" d="M255.3,219.1c-0.2-6.2-5.2-14-5.4-14.4c0,0-0.1-0.1-0.1-0.1c0,0,0,0,0-0.1c-0.1-0.1-0.2-0.1-0.3-0.2
			c0,0,0,0-0.1,0c-0.1,0-0.2-0.1-0.3-0.1c0,0,0,0,0,0h0c0,0,0,0,0,0c-0.1,0-0.3,0-0.4,0.1c0,0-0.1,0-0.1,0.1
			c-0.1,0.1-0.2,0.1-0.2,0.2c0,0,0,0,0,0c-0.2,0.2-3.4,4.4-5.4,9.1c0,0,0,0,0,0c0,0,0,0,0,0c-0.7,1.8-1.3,3.7-1.4,5.5
			c-0.2,4.9,3.2,7.7,5.5,8.7l-0.1,2.3c0,0.5,0.4,1,0.9,1c0.5,0,1-0.4,1-0.9l0.1-2.3c2.4-0.8,6.1-3.3,6.3-8.2c0-0.2,0-0.5,0-0.7
			C255.3,219.2,255.3,219.2,255.3,219.1z M249.9,208.7c0.2,0.5,0.5,1,0.8,1.5l-0.9,0.6L249.9,208.7z M247.7,214.4l-2.5-0.9
			c0.8-1.8,1.9-3.6,2.8-4.9L247.7,214.4z M249.7,213.3l1.8-1.3c0.9,2.1,1.6,4.4,1.8,6.5l-3.9,1.6L249.7,213.3z M243.5,219.4
			c0.1-1.3,0.4-2.7,0.9-4l3.2,1.1l-0.4,9.4C245.7,225,243.4,223,243.5,219.4z M249.1,225.9l0.2-3.6l4-1.6
			C252.8,223.7,250.6,225.3,249.1,225.9z"/>
		<path class="st2" d="M292.2,225.4c-0.1,0-0.2-0.1-0.4-0.1c-0.2,0-0.4,0.1-0.6,0.2c-0.3,0.2-0.4,0.5-0.4,0.8
			c0,0.4,0.2,9.5,3.5,14.4c1.1,1.6,2.5,2.7,4.3,3.3c1.7,0.6,3.4,0.3,4.9-0.7c1.5-1,2.4-2.6,2.4-4.3c0.1-1.8-0.4-3.5-1.6-5.2
			C301,229,292.5,225.6,292.2,225.4z M302.4,241.7c-0.6,0.4-1.3,0.7-2.1,0.7c-0.4,0-0.7-0.1-1.1-0.2c-1.3-0.4-2.4-1.3-3.3-2.6
			c-2.2-3.2-2.9-9-3.1-11.7c2.5,1.2,7.6,3.8,9.9,7.1c0.9,1.3,1.3,2.6,1.2,4C303.9,240.1,303.3,241.1,302.4,241.7z"/>
	</g>
	<g>
		<path class="st3" d="M53.5,209.7c-0.3-0.3-0.6-0.5-0.9-0.6c0.8-4.3,1.2-7.1,1.2-7.2c0-0.1,0-0.1,0-0.2c0-0.5-0.4-0.9-0.9-1
			c-0.5-0.1-1,0.3-1.1,0.9c0,0.1-0.4,2.8-1.2,7c-0.3,0-0.5,0-0.8,0.1c-3.5,0.9-7.9,2.6-8.7,5.2c-0.7,2.3,0.5,3.5,1.3,3.9
			c0.1,0,0.1,0.1,0.1,0.1c0,0,0,0.1-0.1,0.2c-3.1,3.3-4.6,5.6-3.7,7.7c0.3,0.6,1,1.5,2.7,1.7c0.2,0,0.3,0.2,0.4,0.3
			c0.1,0.1,0.1,0.3,0,0.5c-1.3,2.7-1.7,4.8-1,6.4c0.6,1.4,1.7,1.8,1.8,1.8c0,0,4.7,1.6,7.6-5.1c0.1-0.2,0.3-0.4,0.6-0.5
			c0.2-0.1,0.5-0.1,0.7,0c1.1,0.6,2.2,0.7,3.2,0.3c2.2-1,2.8-3.7,2-8.5c0-0.2,0.1-0.3,0.1-0.3c1.6,0.1,2.7-1,3-2.8
			c0-0.2,0-0.3,0-0.5C59.9,216.4,56.5,212.5,53.5,209.7z M58,219.4c-0.2,1.1-0.6,1.1-0.9,1.1c-0.6,0-1.2,0.2-1.6,0.7
			c-0.4,0.4-0.6,1-0.6,1.6c0,0.1,0,0.2,0,0.3c0.6,3.6,0.3,5.8-0.9,6.3c-0.4,0.2-0.9,0.1-1.5-0.2c-0.6-0.3-1.5-0.4-2.2-0.1
			c-0.8,0.3-1.5,0.9-1.8,1.6c-2.2,5-5,4.1-5.2,4.1c0,0-0.4-0.2-0.7-0.7c-0.2-0.6-0.4-2,1-4.7c0.4-0.7,0.4-1.6,0-2.3
			c-0.4-0.7-1.1-1.3-1.9-1.4c-0.4-0.1-1-0.3-1.2-0.6c-0.5-1.1,1.5-3.5,3.3-5.5c0.5-0.5,0.7-1.2,0.6-1.8c-0.1-0.7-0.5-1.2-1-1.6
			c-0.4-0.2-0.7-0.6-0.4-1.7c0.4-1.3,3.1-2.7,7.1-3.8c-0.2,1.1-0.5,2.3-0.8,3.5l-2.6,0.6c-0.5,0.1-0.9,0.6-0.8,1.2
			c0.1,0.5,0.6,0.9,1.2,0.8l1.6-0.4c-0.3,1.3-0.7,2.7-1.1,4.2l-4.7,1.9c-0.5,0.2-0.7,0.8-0.5,1.3c0.2,0.5,0.8,0.8,1.3,0.5l3.2-1.3
			c-0.2,0.7-0.4,1.4-0.7,2.1c-0.2,0.5,0.1,1.1,0.6,1.3c0.5,0.2,1.1-0.1,1.3-0.6c0.5-1.4,0.9-2.8,1.3-4.1c0,0,0,0,0,0
			c0.1-0.4,0.2-0.8,0.3-1.2l2.1,4c0.3,0.5,0.9,0.7,1.3,0.4c0.3-0.2,0.5-0.5,0.5-0.9c0-0.1,0-0.3-0.1-0.4l-3.1-5.8
			c0.2-0.7,0.4-1.5,0.5-2.2c0,0,0,0,0,0c0.4-1.5,0.7-2.9,0.9-4.2C55.9,214.7,58.2,217.9,58,219.4z"/>
		<path class="st1" d="M44.6,82.7c0.1,0.1,0.1,0.2,0.1,0.2c0,0,0,0.1-0.1,0.1c-0.7,0.5-1.9,1.7-1.1,4c0.9,2.6,5.3,4,8.9,4.7
			c0.3,0.1,0.5,0.1,0.8,0.1c1,4.1,1.5,6.9,1.6,7c0.1,0.5,0.6,0.9,1.1,0.8c0.5-0.1,0.8-0.5,0.8-1c0-0.1,0-0.1,0-0.2
			c0-0.1-0.5-2.9-1.6-7.1c0.3-0.2,0.6-0.4,0.9-0.7c2.8-3,6-7.1,6-9.8c0-0.2,0-0.3-0.1-0.5c-0.3-1.8-1.5-2.8-3.1-2.6
			c0,0-0.1-0.1-0.1-0.3c0.6-4.8-0.2-7.5-2.4-8.3c-1-0.4-2.1-0.2-3.2,0.4c-0.2,0.1-0.4,0.1-0.6,0c-0.3-0.1-0.5-0.3-0.7-0.5
			c-3.3-6.5-7.8-4.8-7.9-4.7c-0.1,0-1.2,0.5-1.7,1.9c-0.6,1.6-0.1,3.7,1.3,6.4c0.1,0.2,0.1,0.4,0,0.5c-0.1,0.2-0.2,0.3-0.4,0.4
			c-1.6,0.4-2.3,1.2-2.6,1.9C39.6,77.4,41.3,79.6,44.6,82.7z M42.4,76c0.2-0.4,0.7-0.6,1.2-0.7c0.8-0.2,1.5-0.7,1.8-1.5
			c0.3-0.7,0.3-1.6-0.1-2.3c-1.5-2.7-1.4-4.1-1.2-4.6c0.2-0.6,0.6-0.8,0.6-0.8c0.1,0,2.9-1,5.4,3.8c0.4,0.7,1,1.3,1.9,1.5
			c0.8,0.2,1.6,0.1,2.2-0.2c0.6-0.3,1.1-0.4,1.5-0.3c1.2,0.5,1.6,2.7,1.2,6.3c0,0.1,0,0.2,0,0.4c0,0.6,0.2,1.2,0.7,1.6
			c0.4,0.4,1,0.7,1.7,0.6c0.3,0,0.8-0.1,1,1c0.3,1.4-1.9,4.8-5.4,8.5c-0.3-1.3-0.7-2.7-1.2-4.1c0,0,0,0,0,0
			c-0.2-0.7-0.4-1.4-0.7-2.2l2.8-6c0.1-0.1,0.1-0.3,0.1-0.4c0-0.4-0.2-0.7-0.6-0.9c-0.5-0.2-1.1,0-1.3,0.5l-1.9,4.1
			c-0.1-0.4-0.3-0.8-0.4-1.1c0,0,0,0,0,0c-0.5-1.3-1-2.7-1.5-4.1c-0.2-0.5-0.8-0.8-1.3-0.6c-0.5,0.2-0.8,0.8-0.6,1.3
			c0.3,0.7,0.5,1.4,0.8,2.1l-3.3-1.1c-0.5-0.2-1.1,0.1-1.3,0.6c-0.2,0.5,0.1,1.1,0.6,1.3l4.8,1.7c0.5,1.4,0.9,2.8,1.3,4.1L49.4,84
			c-0.5-0.1-1,0.3-1.1,0.8c-0.1,0.5,0.3,1,0.8,1.1l2.6,0.4c0.3,1.2,0.7,2.3,1,3.4c-4.1-0.9-6.9-2.2-7.3-3.4c-0.4-1,0-1.4,0.3-1.7
			c0.5-0.4,0.9-1,0.9-1.6c0.1-0.7-0.2-1.3-0.7-1.8C44,79.5,41.9,77.2,42.4,76z"/>
		<path class="st1" d="M75.7,155.7c0-0.2,0-0.3-0.1-0.5c-0.3-1.8-1.5-2.8-3.1-2.6c0,0-0.1-0.1-0.1-0.3c0.6-4.8-0.2-7.5-2.4-8.3
			c-1-0.4-2.1-0.2-3.2,0.4c-0.2,0.1-0.4,0.1-0.6,0c-0.3-0.1-0.5-0.3-0.7-0.5c-3.3-6.5-7.8-4.8-7.9-4.7c-0.1,0-1.2,0.5-1.7,1.9
			c-0.6,1.6-0.1,3.7,1.3,6.4c0.1,0.2,0.1,0.4,0,0.5c-0.1,0.2-0.2,0.3-0.4,0.4c-1.6,0.4-2.3,1.2-2.6,1.9c-0.9,2.1,0.8,4.3,4,7.5
			c0.1,0.1,0.1,0.2,0.1,0.2c0,0,0,0.1-0.1,0.1c-0.7,0.5-1.9,1.7-1.1,4c0.9,2.6,5.3,4,8.9,4.7c0.3,0.1,0.5,0.1,0.8,0.1
			c1,4.1,1.5,6.9,1.6,7c0.1,0.5,0.6,0.9,1.1,0.8c0.5-0.1,0.8-0.5,0.8-1c0-0.1,0-0.1,0-0.2c0-0.1-0.5-2.9-1.6-7.1
			c0.3-0.2,0.6-0.4,0.9-0.7C72.6,162.5,75.8,158.5,75.7,155.7z M68.3,164.2c-0.3-1.3-0.7-2.7-1.2-4.1c0,0,0,0,0,0
			c-0.2-0.7-0.4-1.4-0.7-2.2l2.8-6c0.1-0.1,0.1-0.3,0.1-0.4c0-0.4-0.2-0.7-0.6-0.9c-0.5-0.2-1.1,0-1.3,0.5l-1.9,4.1
			c-0.1-0.4-0.3-0.8-0.4-1.1c0,0,0,0,0,0c-0.5-1.3-1-2.7-1.5-4.1c-0.2-0.5-0.8-0.8-1.3-0.6c-0.5,0.2-0.8,0.8-0.6,1.3
			c0.3,0.7,0.5,1.4,0.8,2.1l-3.3-1.1c-0.5-0.2-1.1,0.1-1.3,0.6c-0.2,0.5,0.1,1.1,0.6,1.3l4.8,1.7c0.5,1.4,0.9,2.8,1.3,4.1l-1.6-0.3
			c-0.5-0.1-1,0.3-1.1,0.8c-0.1,0.5,0.3,1,0.8,1.1l2.6,0.4c0.3,1.2,0.7,2.3,1,3.4c-4.1-0.9-6.9-2.2-7.3-3.4c-0.4-1,0-1.4,0.3-1.7
			c0.5-0.4,0.9-1,0.9-1.6c0.1-0.7-0.2-1.3-0.7-1.8c-1.9-1.9-4.1-4.2-3.6-5.3c0.2-0.4,0.7-0.6,1.2-0.7c0.8-0.2,1.5-0.7,1.8-1.5
			c0.3-0.7,0.3-1.6-0.1-2.3c-1.5-2.7-1.4-4.1-1.2-4.6c0.2-0.6,0.6-0.8,0.6-0.8c0.1,0,2.9-1,5.4,3.8c0.4,0.7,1,1.3,1.9,1.5
			c0.8,0.2,1.6,0.1,2.2-0.2c0.6-0.3,1.1-0.4,1.5-0.3c1.2,0.5,1.6,2.7,1.2,6.3c0,0.1,0,0.2,0,0.4c0,0.6,0.2,1.2,0.7,1.6
			c0.4,0.4,1,0.7,1.7,0.6c0.3,0,0.8-0.1,1,1C74,157,71.9,160.4,68.3,164.2z"/>
		<path class="st1" d="M258.8,227.2c-0.1,0-0.2,0-0.3,0c-0.2,0-0.4,0.1-0.6,0.2c-0.4,0.3-10.2,7.2-12.4,13.8
			c-1.3,3.9,0.2,6.7,1.7,8.5c0.5,0.6,1.2,1.1,2,1.5c0.5,0.2,1,0.2,1.5,0c0.4-0.2,0.7-0.5,0.9-0.8c0,0.3,0.2,0.6,0.4,0.9
			c0.4,0.4,1,0.6,1.5,0.5c0.4-0.1,0.8-0.2,1.2-0.3c3.3-1.2,5.6-3.4,6.6-6.4c2.3-6.6-1.7-16.8-1.9-17.3
			C259.3,227.5,259.1,227.3,258.8,227.2z M259.4,244.4c-0.8,2.4-2.6,4.2-5.4,5.1c-0.2,0.1-0.3,0.1-0.5,0.1l1.6-8.4
			c0.1-0.6-0.3-1.2-0.9-1.4c-0.7-0.2-1.3,0.2-1.6,0.8l-3,8.5c-0.5-0.2-0.8-0.5-1.1-0.9c-1.7-1.9-2.1-4.1-1.3-6.5
			c1.6-4.8,8.1-10.1,10.7-12.1C259,232.6,261,239.7,259.4,244.4z"/>
		<path class="st1" d="M388.6,191.3c-0.1,0-0.1,0-0.2,0c-0.1,0-2.9,0.5-7.2,1.4c-0.2-0.3-0.4-0.6-0.7-0.9c-2.9-2.9-6.9-6.2-9.7-6.2
			c-0.2,0-0.3,0-0.5,0c-1.8,0.3-2.9,1.4-2.7,3.1c0,0-0.1,0.1-0.3,0.1c-4.8-0.7-7.5,0-8.4,2.2c-0.4,1-0.3,2.1,0.3,3.2
			c0.1,0.2,0.1,0.4,0,0.7c-0.1,0.3-0.3,0.5-0.5,0.6c-6.6,3.1-5,7.7-4.9,7.8c0,0.1,0.4,1.2,1.8,1.7c1.6,0.6,3.7,0.2,6.4-1.2
			c0.2-0.1,0.4-0.1,0.5,0c0.2,0.1,0.3,0.2,0.3,0.4c0.3,1.6,1.2,2.3,1.8,2.6c2.1,0.9,4.4-0.7,7.6-3.9c0.1-0.1,0.2-0.1,0.2-0.1
			c0,0,0.1,0,0.1,0.1c0.5,0.8,1.7,1.9,4,1.2c2.6-0.8,4.1-5.2,4.9-8.8c0.1-0.3,0.1-0.5,0.1-0.8c4.2-0.9,7-1.4,7-1.4
			c0.5-0.1,0.9-0.6,0.8-1.1C389.5,191.7,389.1,191.3,388.6,191.3z M376.1,202.4c-1.1,0.3-1.4,0-1.7-0.4c-0.4-0.5-0.9-0.9-1.6-1
			c-0.7-0.1-1.3,0.2-1.8,0.6c-1.9,1.9-4.3,4-5.4,3.5c-0.4-0.2-0.6-0.8-0.7-1.2c-0.2-0.8-0.7-1.5-1.4-1.8c-0.7-0.4-1.6-0.3-2.3,0
			c-2.7,1.4-4.1,1.3-4.7,1.1c-0.6-0.2-0.8-0.6-0.8-0.6c0-0.1-1-2.9,3.9-5.3c0.7-0.3,1.3-1,1.6-1.8c0.2-0.8,0.2-1.6-0.2-2.2
			c-0.3-0.6-0.4-1.1-0.2-1.5c0.5-1.2,2.7-1.5,6.3-1c0.1,0,0.2,0,0.4,0c0.6,0,1.2-0.2,1.6-0.6c0.5-0.4,0.7-1,0.6-1.6
			c0-0.3-0.1-0.8,1.1-0.9c1.4-0.2,4.7,2,8.4,5.6c-1.3,0.3-2.7,0.7-4.1,1.1c0,0,0,0,0,0c-0.7,0.2-1.4,0.4-2.2,0.6l-5.9-2.9
			c-0.1-0.1-0.3-0.1-0.4-0.1c-0.4,0-0.7,0.2-0.9,0.5c-0.2,0.5,0,1.1,0.4,1.3l4,2c-0.4,0.1-0.8,0.2-1.2,0.4c0,0,0,0,0,0
			c-1.4,0.4-2.7,0.9-4.1,1.4c-0.5,0.2-0.8,0.8-0.6,1.3c0.2,0.5,0.8,0.8,1.3,0.6c0.7-0.3,1.4-0.5,2.1-0.7l-1.2,3.3
			c-0.2,0.5,0.1,1.1,0.6,1.3c0.5,0.2,1.1-0.1,1.3-0.6l1.8-4.8c1.4-0.4,2.8-0.9,4.1-1.2l-0.3,1.6c-0.1,0.5,0.2,1.1,0.8,1.2
			c0.5,0.1,1.1-0.2,1.2-0.8l0.5-2.6c1.2-0.3,2.4-0.6,3.4-0.9C378.7,199.2,377.3,202,376.1,202.4z"/>
		<path class="st1" d="M341.2,222.9c0,0,0,0.1,0,0.1c0,0.1-0.5,2.9-1,7.2c-0.4,0.1-0.7,0.2-1.1,0.3c-3.7,1.8-8.1,4.4-9,7
			c-0.1,0.2-0.1,0.3-0.1,0.5c-0.3,1.8,0.4,3.1,2,3.6c0,0,0.1,0.2,0,0.3c-2.2,4.2-2.4,7-0.7,8.6c0.8,0.7,1.8,0.9,3.1,0.7
			c0.2,0,0.4,0,0.6,0.2c0.2,0.2,0.4,0.4,0.4,0.7c0.8,7.2,5.6,7.1,5.6,7.1c0.1,0,1.3,0,2.2-1.1c1.1-1.3,1.4-3.4,1-6.3
			c0-0.2,0.1-0.4,0.2-0.5c0.1-0.1,0.3-0.2,0.5-0.2c1.6,0.2,2.6-0.3,3-0.8c1.6-1.6,0.8-4.3-1.1-8.3c0-0.1,0-0.2,0-0.2
			c0,0,0.1-0.1,0.1-0.1c0.9-0.2,2.3-0.9,2.4-3.3c0.1-2.7-3.6-5.6-6.6-7.5c-0.2-0.1-0.5-0.2-0.7-0.3c0.5-4.2,1-6.9,1-7
			c0.1-0.5-0.3-1-0.8-1.1C341.8,222.1,341.3,222.4,341.2,222.9z M347.4,238.2c0,1.1-0.5,1.4-0.9,1.5c-0.6,0.2-1.1,0.6-1.4,1.2
			c-0.3,0.6-0.3,1.3,0,1.9c1.1,2.4,2.3,5.3,1.5,6.2c-0.3,0.3-0.9,0.3-1.3,0.2c-0.8-0.1-1.6,0.2-2.2,0.7c-0.6,0.6-0.8,1.4-0.7,2.2
			c0.5,3-0.1,4.2-0.5,4.7c-0.4,0.5-0.8,0.5-0.8,0.5c-0.1,0-3.1-0.1-3.6-5.4c-0.1-0.8-0.5-1.5-1.2-2.1c-0.6-0.5-1.4-0.7-2.1-0.6
			c-0.7,0.1-1.1,0-1.5-0.3c-0.9-0.8-0.5-3,1.1-6.2c0.1-0.1,0.1-0.2,0.1-0.3c0.2-0.6,0.2-1.2-0.1-1.7c-0.3-0.6-0.7-1-1.3-1.1
			c-0.3-0.1-0.7-0.2-0.5-1.3c0.3-1.4,3.4-3.8,8-6c-0.1,1.3-0.3,2.7-0.4,4.2c0,0,0,0,0,0c-0.1,0.7-0.1,1.5-0.1,2.2l-4.7,4.5
			c-0.1,0.1-0.2,0.2-0.2,0.4c-0.1,0.3,0,0.7,0.2,1c0.4,0.4,1,0.4,1.4,0l3.2-3.1c0,0.4,0,0.8,0,1.2c0,0,0,0,0,0c0,1.4-0.1,2.8,0,4.3
			c0,0.5,0.4,1,1,1c0.5,0,1-0.5,1-1c0-0.7,0-1.5,0-2.2l2.7,2.2c0.4,0.3,1,0.3,1.4-0.1c0.3-0.4,0.3-1-0.1-1.4l-3.9-3.2
			c0-1.5,0.1-2.9,0.2-4.3l1.4,0.8c0.5,0.3,1.1,0.1,1.3-0.4c0.3-0.5,0.1-1.1-0.4-1.3l-2.3-1.3c0.1-1.2,0.2-2.4,0.3-3.5
			C345.3,234.7,347.4,236.8,347.4,238.2z"/>
		<path class="st1" d="M412.6,101.1c0.3-0.2,0.6-0.4,0.9-0.7c2.8-3,6-7.1,6-9.8c0-0.2,0-0.3-0.1-0.5c-0.3-1.8-1.5-2.8-3.1-2.6
			c0,0-0.1-0.1-0.1-0.3c0.6-4.8-0.2-7.5-2.4-8.3c-1-0.4-2.1-0.2-3.2,0.4c-0.2,0.1-0.4,0.1-0.6,0c-0.3-0.1-0.5-0.3-0.7-0.5
			c-3.3-6.5-7.8-4.8-7.9-4.7c-0.1,0-1.2,0.5-1.7,1.9c-0.6,1.6-0.1,3.7,1.3,6.4c0.1,0.2,0.1,0.4,0,0.5c-0.1,0.2-0.2,0.3-0.4,0.4
			c-1.6,0.4-2.3,1.2-2.6,1.9c-0.9,2.1,0.8,4.3,4,7.5c0.1,0.1,0.1,0.2,0.1,0.2c0,0,0,0.1-0.1,0.1c-0.7,0.5-1.9,1.7-1.1,4
			c0.9,2.6,5.3,4,8.9,4.7c0.3,0.1,0.5,0.1,0.8,0.1c1,4.1,1.5,6.9,1.6,7c0.1,0.5,0.6,0.9,1.1,0.8c0.5-0.1,0.8-0.5,0.8-1
			c0-0.1,0-0.1,0-0.2C414.2,108.2,413.6,105.3,412.6,101.1z M412.1,99c-0.3-1.3-0.7-2.7-1.2-4.1c0,0,0,0,0,0
			c-0.2-0.7-0.4-1.4-0.7-2.2l2.8-6c0.1-0.1,0.1-0.3,0.1-0.4c0-0.4-0.2-0.7-0.6-0.9c-0.5-0.2-1.1,0-1.3,0.5l-1.9,4.1
			c-0.1-0.4-0.3-0.8-0.4-1.1c0,0,0,0,0,0c-0.5-1.3-1-2.7-1.5-4.1c-0.2-0.5-0.8-0.8-1.3-0.6c-0.5,0.2-0.8,0.8-0.6,1.3
			c0.3,0.7,0.5,1.4,0.8,2.1l-3.3-1.1c-0.5-0.2-1.1,0.1-1.3,0.6c-0.2,0.5,0.1,1.1,0.6,1.3l4.8,1.7c0.5,1.4,0.9,2.8,1.3,4.1l-1.6-0.3
			c-0.5-0.1-1,0.3-1.1,0.8c-0.1,0.5,0.3,1,0.8,1.1l2.6,0.4c0.3,1.2,0.7,2.3,1,3.4c-4.1-0.9-6.9-2.2-7.3-3.4c-0.4-1,0-1.4,0.3-1.7
			c0.5-0.4,0.9-1,0.9-1.6c0.1-0.7-0.2-1.3-0.7-1.8c-1.9-1.9-4.1-4.2-3.6-5.3c0.2-0.4,0.7-0.6,1.2-0.7c0.8-0.2,1.5-0.7,1.8-1.5
			c0.3-0.7,0.3-1.6-0.1-2.3c-1.5-2.7-1.4-4.1-1.2-4.6c0.2-0.6,0.6-0.8,0.6-0.8c0.1,0,2.9-1,5.4,3.8c0.4,0.7,1,1.3,1.9,1.5
			c0.8,0.2,1.6,0.1,2.2-0.2c0.6-0.3,1.1-0.4,1.5-0.3c1.2,0.5,1.6,2.7,1.2,6.3c0,0.1,0,0.2,0,0.4c0,0.6,0.2,1.2,0.7,1.6
			c0.4,0.4,1,0.7,1.7,0.6c0.3,0,0.8-0.1,1,1C417.7,91.9,415.6,95.2,412.1,99z"/>
	</g>
	<path class="st2" d="M316,40.9C316,40.9,316,40.9,316,40.9c0,0.1,0.1,0.2,0.2,0.3c0,0,0,0,0,0.1c0.1,0.1,0.2,0.2,0.3,0.2
		c0,0,0,0,0,0c0,0,0,0,0,0c0,0,0.1,0,0.1,0.1c0,0,0.1,0,0.1,0c0.1,0,0.2,0,0.2,0l0,0c0,0,0,0,0,0l0,0c0.1,0,0.3,0,0.4-0.1
		c0,0,0,0,0,0c0.4-0.2,9-4.7,13.9-9.6c0,0,0,0,0,0c0.2-0.2,0.4-0.3,0.5-0.5c4.3-4.5,2.2-9.4,0.4-11.3c0,0-0.1,0-0.1-0.1
		c0.9-1.6,1.8-3.2,2.6-4.9c0.2-0.5,0-1.1-0.5-1.3c-0.5-0.2-1.1,0-1.3,0.5c-0.8,1.9-1.8,3.6-2.8,5.3c-2.2-0.1-6.3,0.3-9.9,4
		c-5,5.3-4.3,16.6-4.3,17.1C315.9,40.7,316,40.8,316,40.9z M319.6,38c0.1-0.1,0.2-0.3,0.2-0.4c0,0.1,0.1,0.1,0.1,0.2
		C319.8,37.8,319.7,37.9,319.6,38z M321.6,36.7L321.6,36.7c-0.4-0.5-0.5-0.6-0.6-0.9c1.5-2.2,3.1-4.3,4.6-6.4
		c0.6-0.7,1.1-1.5,1.7-2.2c0.7,1.3,1.1,2,1.7,3.2l0.4,0.7C327.1,33.1,324.1,35.1,321.6,36.7z M331.1,21.7c0.8,1.1,2.6,4.4-0.3,7.8
		l-0.1-0.1c-0.8-1.4-1.1-2.1-2.2-4C329.5,24.2,330.3,23,331.1,21.7z M321.7,24.9c2.5-2.6,5.3-3.3,7.3-3.4c-1.5,2.3-3.2,4.5-4.9,6.7
		c-0.3,0.4-0.7,0.9-1,1.3c-1.5-0.4-2.3-0.6-3.6-1C320,27.2,320.7,25.9,321.7,24.9z M318.9,30.5c1.1,0.3,1.8,0.5,2.9,0.8
		c-0.9,1.3-1.9,2.6-2.8,4c0,0,0,0,0,0c-0.3,0.5-0.7,1.1-1,1.6C318,35,318.3,32.7,318.9,30.5z"/>
	<path class="st1" d="M257.7,28.6c-1.7-0.3-2.8,0.3-3.4,0.9c-1.8,1.8-1.7,4.9-0.9,9.8c0.1,0.4-0.3,0.9-0.6,1c-0.9,0.2-2.6,1-3.1,3.7
		c-0.2,0.8-0.5,5,9.9,10.2c0.2,1,0.5,2,0.9,3c0.2,0.5,0.8,0.7,1.3,0.5c0.5-0.2,0.7-0.8,0.5-1.3c-0.3-0.8-0.6-1.7-0.8-2.6
		c2.4-1.4,8.9-5.7,9.5-9.5v0c0.5-2.9-1-3.8-1.8-4c0-0.1-0.1-0.3,0.2-0.7c3.2-4.7,4.8-8,3.3-10c-0.5-0.6-1.4-1.3-3.3-1
		c-0.2,0-0.4-0.1-0.5-0.2c-0.2-0.2-0.4-0.6-0.3-1c0.3-3-0.3-5.3-1.8-6.8c-1.9-2.1-4.5-2.1-4.6-2.1c-0.1,0-0.9,0-1.7,0.8
		c-1.3,1.4-1.9,4.1-1.7,8c0,0.5-0.3,0.8-0.4,0.9C258.2,28.5,257.9,28.6,257.7,28.6z M259.7,29.8c0.7-0.6,1.1-1.5,1.1-2.5
		c-0.3-6.3,1.5-6.9,1.4-6.9c0,0,1.9,0.1,3.2,1.5c1.1,1.2,1.5,3,1.3,5.4c-0.1,1,0.3,2,0.9,2.6c0.6,0.5,1.4,0.8,2.1,0.7
		c0.4-0.1,1.1-0.1,1.4,0.3c1,1.4-2.3,6.2-3.3,7.8c-0.5,0.8-0.7,1.7-0.4,2.4c0.2,0.6,0.6,1,1.2,1.2c0.2,0.1,0.7,0.2,0.5,1.9
		c-0.4,2.3-4.6,5.6-7.9,7.7c-0.7-6.2,1.1-13.1,2.7-19c0.1-0.4,0.2-0.8,0.3-1.2c0.1-0.5-0.2-1-0.7-1.2c-0.5-0.1-1,0.2-1.2,0.7
		c-0.1,0.4-0.2,0.8-0.3,1.2c-1.6,6-3.5,13.1-2.8,19.5c-3.8-2.1-8-5.4-7.6-7.4c0.3-1.2,0.8-2,1.7-2.2c1.3-0.3,2.3-1.8,2.1-3.2
		c-0.6-4-0.8-6.9,0.4-8.1c0.1-0.1,0.4-0.4,1.1-0.4c0.2,0,0.3,0,0.5,0C258.1,30.6,259,30.3,259.7,29.8z"/>
	<path class="st3" d="M71.7,235.5c-1.9,0-5.5,0.1-8.1,1.1c-3.4,1.3-4,4.1-4,4.9c0,0.1,0,0.1,0,0.2c0,0.4,0.2,0.8,0.5,1.2
		c0.7,0.7,3.1,3,6.7,1.7c2.8-1,5.3-4.4,6.5-6.4c0.3-0.5,0.4-1.2,0.1-1.8C72.9,235.9,72.3,235.5,71.7,235.5z M66,242.7
		c-2.2,0.8-3.8-0.5-4.5-1.2c0.1-0.8,0.6-2.4,2.7-3.2c2.2-0.8,5.2-0.9,7-1C69.5,240.3,67.6,242.2,66,242.7z"/>
	<path class="st3" d="M295,50.4c-1,2.6-1.6,4.5-1.6,4.6c-0.2,0.5,0.1,1.1,0.7,1.2c0.1,0,0.2,0,0.3,0c0.4,0,0.8-0.3,0.9-0.7
		c0,0,0.6-1.9,1.6-4.6c0,0,0,0,0,0c0,0,0,0,0.1,0c3.9-0.1,6.2-0.8,7-2.2v0c0.8-1.5,0.3-2.5-0.1-3c2.4-1.8,3.8-3.3,3.4-4.9
		c-0.1-0.5-0.5-1.3-1.7-1.7c0,0-0.1-0.1,0-0.2c1.1-1.7,1.5-3.2,1.2-4.4c-0.3-1.3-1.2-1.9-1.3-1.9c-0.1-0.1-1.1-0.6-2.3-0.2
		c-1.3,0.4-2.3,1.5-3.2,3.3c-0.1,0.1-0.2,0.1-0.2,0.1c-1-0.8-1.8-0.7-2.3-0.6c-1.6,0.5-2.1,2.5-2.4,5.5c-0.6-0.1-1.7-0.1-2.6,1.4
		c-0.8,1.4-0.3,3.8,1.6,7.1C294.3,49.8,294.6,50.2,295,50.4z M294.1,43.3c0.3-0.4,0.4-0.5,0.5-0.5c0,0,0.1,0,0.1,0
		c0.5,0.1,1,0,1.4-0.3c0.5-0.3,0.8-0.8,0.8-1.4c0.3-3,0.8-3.8,1.1-3.9c0.1,0,0.2,0,0.5,0.2c0.5,0.4,1.1,0.5,1.7,0.4
		c0.7-0.1,1.2-0.6,1.5-1.2c0.8-1.6,1.5-2.1,2-2.3c0.5-0.2,0.8,0,0.8,0c0,0,0,0,0,0c0,0,0.3,0.2,0.4,0.7c0.1,0.5,0,1.4-1,2.9
		c-0.4,0.6-0.5,1.2-0.3,1.9c0.2,0.6,0.6,1.1,1.2,1.3c0.3,0.1,0.4,0.2,0.4,0.3c0.1,0.3-0.3,1.1-2.8,3c-0.4,0.3-0.7,0.9-0.8,1.4
		c0,0.5,0.1,1,0.5,1.4c0.1,0.1,0.2,0.2-0.1,0.8c-0.3,0.5-1.8,1-4.6,1.2c0.5-1.3,1.1-2.7,1.8-4.1c0.2-0.5,0-1.1-0.5-1.3
		c-0.5-0.2-1.1,0-1.3,0.5c-0.7,1.5-1.3,3-1.9,4.3c0,0,0,0,0,0C294.2,45.6,293.8,43.8,294.1,43.3z"/>
	<path class="st3" d="M341.7,51.2c0.3,0.1,0.6,0.1,0.9,0.1c0.9,0,1.7-0.4,2.3-1c1.1-1.2,2.7-3.7,1.6-7c-1.2-3.4-5.3-6.5-7.7-8
		c-0.5-0.3-1.2-0.4-1.7-0.1c-0.5,0.3-0.9,0.8-0.9,1.4c-0.1,2.3-0.1,6.8,1,10C338.2,49.7,340.5,50.8,341.7,51.2z M338.1,37.1
		c1.9,1.3,5.5,4,6.5,6.7c0.8,2.3-0.2,4-1.1,5.1c-0.3,0.3-0.7,0.5-1.1,0.3c-1.1-0.3-2.5-1.1-3.3-3.4C338.1,43.1,338,39.1,338.1,37.1z
		"/>
	<path class="st1" d="M309.2,30.9c0.3,0.1,0.6,0.1,0.9,0.1c0.9,0,1.7-0.4,2.3-1c1.1-1.2,2.7-3.7,1.6-7c-1.2-3.4-5.3-6.5-7.7-8
		c-0.5-0.3-1.2-0.4-1.7-0.1c-0.5,0.3-0.9,0.8-0.9,1.4c-0.1,2.3-0.1,6.8,1,10C305.7,29.5,308,30.5,309.2,30.9z M305.6,16.9
		c1.9,1.3,5.5,4,6.5,6.7c0.8,2.3-0.2,4-1.1,5.1c-0.3,0.3-0.7,0.5-1.1,0.3c-1.1-0.3-2.5-1.1-3.3-3.4
		C305.6,22.9,305.5,18.9,305.6,16.9z"/>
	<path class="st3" d="M26.3,220.1c-3.4,1.3-6.4,5.5-7.9,7.9c-0.3,0.5-0.3,1.2,0,1.7c0.3,0.5,0.9,0.9,1.5,0.9c2.3,0,6.8-0.1,10-1.3
		c3.1-1.2,4.2-3.4,4.5-4.7c0.1-0.3,0.1-0.6,0.1-0.9c0-0.9-0.4-1.7-1.1-2.3C32.2,220.4,29.7,218.9,26.3,220.1z M32.4,224.1
		c-0.3,1.1-1.1,2.5-3.3,3.3c-2.8,1-6.7,1.1-8.8,1.1c1.2-1.9,3.9-5.6,6.6-6.6c2.3-0.8,4,0.1,5.1,1C32.4,223.3,32.6,223.7,32.4,224.1z
		"/>
	<path class="st2" d="M50,195.5c0,0-2-0.5-4.6-1.5c0,0,0,0,0,0c0,0,0,0,0-0.1c-0.2-3.9-1-6.2-2.4-6.9c0,0,0,0,0,0
		c-1.5-0.8-2.5-0.2-3,0.2c-1.9-2.3-3.4-3.7-5-3.3c-0.5,0.1-1.3,0.5-1.7,1.7c0,0-0.1,0.1-0.2,0c-1.7-1.1-3.2-1.4-4.5-1.1
		c-1.3,0.3-1.8,1.3-1.9,1.4c-0.1,0.1-0.5,1.1-0.1,2.3c0.4,1.2,1.6,2.3,3.4,3.1c0.1,0,0.1,0.1,0.1,0.2c-0.8,1-0.7,1.8-0.5,2.4
		c0.6,1.6,2.5,2.1,5.5,2.3c-0.1,0.6,0,1.7,1.5,2.6c1.4,0.8,3.8,0.2,7.1-1.8c0.4-0.3,0.8-0.6,1-1c2.6,0.9,4.5,1.4,4.6,1.5
		c0.5,0.1,1.1-0.2,1.2-0.7c0-0.1,0-0.2,0-0.3C50.7,196,50.4,195.6,50,195.5z M38.4,193.4c1.5,0.7,3,1.3,4.4,1.8c0,0,0,0,0,0
		c-2.8,1.7-4.6,2.1-5.1,1.8c-0.4-0.2-0.5-0.4-0.5-0.5c0,0,0-0.1,0-0.1c0.1-0.5,0-1-0.3-1.4c-0.3-0.5-0.8-0.7-1.4-0.8
		c-3-0.3-3.8-0.7-3.9-1c0-0.1,0-0.2,0.2-0.5c0.4-0.5,0.5-1.1,0.3-1.7c-0.2-0.6-0.6-1.2-1.2-1.5c-1.6-0.7-2.1-1.4-2.3-1.9
		c-0.2-0.4,0-0.8,0-0.8l0,0c0,0,0.2-0.3,0.7-0.4c0.5-0.1,1.4-0.1,2.9,0.9c0.6,0.4,1.3,0.4,1.9,0.2c0.6-0.2,1-0.7,1.2-1.2
		c0.1-0.3,0.2-0.4,0.3-0.4c0.3-0.1,1.1,0.3,3,2.7c0.3,0.4,0.9,0.7,1.4,0.7c0.5,0,1-0.2,1.3-0.5c0.1-0.1,0.2-0.2,0.8,0.1
		c0.5,0.2,1.1,1.8,1.3,4.5c-1.3-0.5-2.7-1.1-4.2-1.7c-0.5-0.2-1.1,0-1.3,0.5C37.6,192.6,37.9,193.2,38.4,193.4z"/>
	<path class="st3" d="M65.8,184.3c0.1-0.3,0.1-0.6,0.1-0.9c0-0.9-0.4-1.7-1.1-2.3c-1.2-1-3.7-2.6-7.1-1.4c-3.4,1.3-6.4,5.5-7.9,7.9
		c-0.3,0.5-0.3,1.2,0,1.7c0.3,0.5,0.9,0.9,1.5,0.9c2.3,0,6.8-0.1,10-1.3C64.5,187.8,65.5,185.6,65.8,184.3z M51.9,188.3
		c1.2-1.9,3.9-5.6,6.6-6.6c2.3-0.8,4,0.1,5.1,1c0.3,0.3,0.5,0.7,0.4,1.1c-0.3,1.1-1.1,2.5-3.3,3.3C57.9,188.2,53.9,188.3,51.9,188.3
		z"/>
	<path class="st0" d="M18.5,142.9c2,1.7,6.9,3.7,11.3-0.7c0.2-0.2,0.3-0.4,0.5-0.5c0,0,0,0,0,0c4.8-5.1,9-13.8,9.2-14.2c0,0,0,0,0,0
		c0.1-0.1,0.1-0.3,0.1-0.4c0,0,0,0,0,0l0,0l0,0c0-0.1,0-0.2,0-0.2c0,0,0-0.1,0-0.1c0,0,0-0.1-0.1-0.1c0,0,0,0,0,0c0,0,0,0,0,0
		c-0.1-0.1-0.1-0.2-0.2-0.2c0,0,0,0-0.1,0c-0.1-0.1-0.2-0.1-0.3-0.2c0,0,0,0,0,0c-0.1,0-0.1,0-0.2,0c-0.5,0-11.9-0.4-17,4.7
		c-3.7,3.7-4,7.8-3.8,10c-1.6,1.1-3.4,2-5.2,2.9c-0.5,0.2-0.7,0.8-0.5,1.3c0.2,0.5,0.8,0.7,1.3,0.5
		C15.2,144.7,16.8,143.8,18.5,142.9C18.4,142.8,18.4,142.9,18.5,142.9z M20.1,141.7c1.3-0.9,2.5-1.7,3.6-2.6c1.9,1,2.6,1.3,4.1,2.1
		l0.1,0.1C24.6,144.2,21.3,142.4,20.1,141.7z M29.4,139.7l-0.7-0.3c-1.2-0.6-1.9-1-3.2-1.6c0.7-0.6,1.5-1.1,2.2-1.7
		c2-1.6,4.1-3.2,6.3-4.8c0.3,0.2,0.4,0.3,0.9,0.6l0.1,0.1C33.4,134.4,31.4,137.3,29.4,139.7z M36.1,129.7c-0.1,0.1-0.1,0.2-0.2,0.4
		c-0.1,0-0.1-0.1-0.2-0.1C35.8,129.9,36,129.8,36.1,129.7z M34.9,128.1c-0.5,0.4-1.1,0.7-1.6,1.1c0,0,0,0,0,0
		c-1.3,0.9-2.6,1.9-3.9,2.9c-0.3-1.1-0.5-1.8-0.8-2.9C30.8,128.6,33.1,128.2,34.9,128.1z M23.1,132.2c1-1,2.2-1.7,3.6-2.3
		c0.4,1.3,0.6,2,1,3.5c-0.4,0.3-0.9,0.7-1.3,1c-2.2,1.8-4.4,3.5-6.6,5.1C19.9,137.6,20.5,134.8,23.1,132.2z"/>
	<path class="st2" d="M67.5,105.8c-2.3,1.3-2.6,3.2-2.5,4.1c0,0.3-0.4,0.9-0.8,0.9c-4.8,0.8-7.9,1.6-9,3.9c-0.4,0.7-0.7,1.9,0.2,3.5
		c0.1,0.2,0.1,0.5,0,0.7c-0.1,0.2-0.3,0.6-0.8,0.7c-3.8,1.1-6.2,2.4-7.1,4.1c-0.5,1-0.3,1.7-0.3,1.9c0,0.1,0.9,2.6,3.4,3.7
		c2,0.9,4.3,0.8,7.1-0.4c0.4-0.2,0.7-0.2,1,0c0.1,0.1,0.3,0.2,0.3,0.4c0.3,1.9,1.2,2.6,2,2.8c2.4,0.8,5.1-1.8,8.5-6.2
		c0.3-0.3,0.5-0.4,0.6-0.4c0.5,0.7,1.7,1.8,4.3,0.5l0,0c3.4-1.7,5.5-9.2,6.1-12c0.9-0.1,1.8-0.1,2.7,0c0.5,0,1-0.3,1.1-0.8
		c0.1-0.5-0.3-1.1-0.9-1.1c-1-0.1-2.1-0.1-3.1,0C72.1,103.8,68.2,105.4,67.5,105.8z M77.9,112.4c-6.4,1.3-12.6,5.3-17.8,8.6
		c-0.4,0.2-0.7,0.5-1.1,0.7c-0.4,0.3-0.6,0.9-0.3,1.3c0.3,0.5,0.9,0.6,1.3,0.3c0.4-0.2,0.7-0.5,1.1-0.7c5.1-3.3,11.1-7.2,17.3-8.4
		c-1,3.8-2.9,8.9-4.9,9.9c-1.5,0.8-1.8,0.3-1.9,0.1c-0.3-0.5-0.9-0.8-1.5-0.8c-0.8,0-1.6,0.4-2.2,1.1c-1.2,1.5-4.8,6.1-6.4,5.6
		c-0.4-0.1-0.6-0.9-0.7-1.3c-0.1-0.8-0.6-1.4-1.3-1.8c-0.8-0.4-1.8-0.5-2.7-0.1c-2.2,0.9-4.1,1.1-5.5,0.4c-1.7-0.8-2.3-2.5-2.4-2.6
		c0,0,0-1.8,6.1-3.5c0.9-0.2,1.6-0.9,2-1.8c0.4-0.8,0.3-1.7,0-2.4c-0.1-0.2-0.2-0.3-0.2-0.5c-0.2-0.7,0-1,0.1-1.2
		c0.8-1.5,3.6-2.2,7.6-2.8c1.4-0.2,2.5-1.6,2.4-3c-0.1-0.9,0.5-1.7,1.6-2.3C70.3,106.4,74.7,109.5,77.9,112.4z"/>
	<path class="st3" d="M35.3,79.9c0.7-0.6,1-1.5,1-2.3c0-0.3-0.1-0.6-0.1-0.9c-0.4-1.2-1.5-3.5-4.7-4.5c-3.3-1-7.7-0.9-10-0.8
		c-0.6,0-1.1,0.4-1.4,0.9c-0.3,0.5-0.2,1.2,0.1,1.7c1.6,2.3,4.8,6.4,8.2,7.5C31.7,82.7,34.1,81,35.3,79.9z M28.9,79.7
		c-2.8-0.9-5.6-4.4-6.9-6.3c2-0.1,6-0.2,8.8,0.7c2.2,0.7,3.1,2.1,3.4,3.2c0.1,0.4,0,0.8-0.3,1.2C32.9,79.4,31.2,80.4,28.9,79.7z"/>
	<path class="st3" d="M53.8,104c0-0.1,0-0.2-0.1-0.3c-0.2-0.5-0.7-0.8-1.3-0.6c-0.1,0-2,0.7-4.6,1.7c-0.3-0.4-0.6-0.7-1.1-0.9
		c-3.4-1.8-5.8-2.3-7.2-1.5c-1.4,0.9-1.5,2.1-1.3,2.7c-3,0.4-4.9,1-5.4,2.6c-0.2,0.5-0.2,1.4,0.6,2.3c0,0,0,0.1-0.1,0.2
		c-1.8,0.9-2.9,2-3.2,3.3c-0.4,1.3,0.2,2.2,0.2,2.3c0.1,0.1,0.6,1,2,1.3c1.3,0.3,2.8-0.2,4.4-1.3c0.1-0.1,0.2,0,0.2,0
		c0.5,1.1,1.2,1.5,1.8,1.6c1.6,0.3,3.1-1.1,4.8-3.6c0.5,0.4,1.5,0.9,3,0c0,0,0,0,0,0c1.4-0.8,2.1-3.2,2.1-7c0,0,0,0,0-0.1
		c0,0,0,0,0,0c2.6-1.1,4.5-1.7,4.5-1.7C53.5,104.8,53.8,104.4,53.8,104z M45.6,112.1c-0.6,0.3-0.7,0.2-0.8,0.1
		c-0.4-0.3-0.9-0.5-1.4-0.5c-0.6,0.1-1.1,0.3-1.4,0.8c-1.8,2.5-2.5,2.9-2.9,2.9c-0.1,0-0.2-0.2-0.3-0.4c-0.2-0.6-0.7-1-1.3-1.2
		c-0.6-0.2-1.3-0.1-1.9,0.3c-1.4,1-2.3,1.1-2.8,1c-0.5-0.1-0.7-0.4-0.7-0.4c0,0,0,0,0,0c0,0-0.1-0.3,0-0.8c0.2-0.5,0.7-1.2,2.2-2
		c0.6-0.3,1-0.9,1.1-1.5c0.1-0.6,0-1.2-0.4-1.7c-0.2-0.2-0.3-0.4-0.2-0.5c0.1-0.3,0.9-0.8,3.9-1.2c0.6-0.1,1.1-0.4,1.4-0.9
		c0.3-0.4,0.4-0.9,0.2-1.4c0,0,0-0.1,0-0.1c0-0.1,0.1-0.3,0.5-0.6c0.5-0.3,2.3,0,5.2,1.5c0,0,0,0,0,0c-1.4,0.6-2.8,1.3-4.3,2
		c-0.5,0.2-0.7,0.8-0.4,1.3c0.2,0.5,0.8,0.7,1.3,0.4c1.4-0.7,2.8-1.3,4.1-1.9C46.6,110.3,46.1,111.8,45.6,112.1z"/>
	<path class="st2" d="M45.1,147.1c-3.3-1-7.7-0.9-10-0.8c-0.6,0-1.1,0.4-1.4,0.9c-0.3,0.5-0.2,1.2,0.1,1.7c1.6,2.3,4.8,6.4,8.2,7.5
		c3.4,1.1,5.8-0.6,7-1.7c0.7-0.6,1-1.5,1-2.3c0-0.3-0.1-0.6-0.1-0.9C49.4,150.3,48.3,148.1,45.1,147.1z M47.6,153.3
		c-1,1-2.7,2-5,1.3c-2.8-0.9-5.6-4.4-6.9-6.3c2-0.1,6-0.2,8.8,0.7c2.2,0.7,3.1,2.1,3.4,3.2C48.1,152.6,48,153,47.6,153.3z"/>
	<path class="st1" d="M139.6,30.3C139.6,30.3,139.6,30.3,139.6,30.3c0.4-0.4,1.2-1.5,0.4-3.4v0c-0.4-0.8-1.1-1.4-2.3-1.9
		c-2.2-0.9-4.7-0.8-6.8,0.2c-2.2,1-3.8,2.9-4.4,5.2c-0.4,1.2-0.3,2.2,0.1,3c0.9,1.8,2.2,1.8,2.9,1.7c0.2,3.5,0.6,5.8,2.3,6.5
		c0.6,0.2,1.5,0.3,2.6-0.4c0,0,0.1,0,0.2,0c0.1,0,0.2,0.1,0.2,0.2c0.8,2.1,1.9,3.4,3.3,4c0.5,0.2,0.9,0.2,1.3,0.2
		c0.7,0,1.2-0.2,1.3-0.3c0.1-0.1,1.2-0.6,1.6-2c0.4-1.4,0.1-3.1-1-5.1c-0.1-0.1,0-0.3,0-0.3c0-0.1,0.1-0.1,0.1-0.1
		c1.3-0.4,1.8-1.2,2-1.7C143.7,34.3,142.2,32.6,139.6,30.3z M141.3,35.6c-0.1,0.2-0.5,0.4-0.6,0.4c-0.6,0.2-1.1,0.6-1.4,1.3
		c-0.3,0.7-0.2,1.4,0.1,2c1,1.8,1,2.9,0.9,3.5c-0.2,0.6-0.6,0.9-0.6,0.9c0,0,0,0,0,0c0,0-0.5,0.2-1-0.1c-0.6-0.2-1.4-0.9-2.2-2.8
		c-0.3-0.7-0.8-1.2-1.5-1.4c-0.6-0.2-1.3-0.1-1.9,0.3c-0.1,0.1-0.5,0.3-0.7,0.2c-0.9-0.4-1-3.6-1.1-4.7c0-0.6-0.3-1.2-0.8-1.5
		c-0.4-0.3-1-0.5-1.5-0.4c-0.1,0-0.5,0.1-0.8-0.7c-0.1-0.1-0.2-0.5,0.1-1.5c0.5-1.7,1.7-3.2,3.4-4c1.7-0.8,3.6-0.9,5.2-0.2
		c0.9,0.4,1.2,0.7,1.2,0.9c0.3,0.8,0.1,1,0,1.1c-0.4,0.3-0.6,0.8-0.6,1.4c0,0.6,0.3,1.2,0.7,1.6C140.5,33.7,141.5,34.9,141.3,35.6z"
		/>
	<path class="st0" d="M177.4,8.4C177.4,8.4,177.4,8.4,177.4,8.4c-1.8,2-4,6.9,0.3,11.4c0.2,0.2,0.3,0.3,0.5,0.5c0,0,0,0,0,0
		c5,4.9,13.6,9.4,13.9,9.6c0,0,0,0,0,0c0.1,0.1,0.3,0.1,0.4,0.1c0,0,0,0,0,0l0,0l0,0c0.1,0,0.2,0,0.2,0c0,0,0.1,0,0.1,0
		c0,0,0.1,0,0.1-0.1c0,0,0,0,0,0c0,0,0,0,0,0c0.1-0.1,0.2-0.1,0.3-0.2c0,0,0,0,0-0.1c0.1-0.1,0.1-0.2,0.2-0.3c0,0,0,0,0,0
		c0-0.1,0-0.1,0-0.2c0-0.5,0.7-11.8-4.3-17.1c-3.6-3.8-7.7-4.2-9.9-4c-1-1.7-2-3.4-2.8-5.3c-0.2-0.5-0.8-0.7-1.3-0.5
		c-0.5,0.2-0.7,0.8-0.5,1.3C175.6,5.2,176.5,6.8,177.4,8.4z M188.1,25.1L188.1,25.1c-2.6-1.5-5.5-3.5-7.8-5.6l0.4-0.7
		c0.6-1.2,1-1.9,1.7-3.2c0.6,0.7,1.1,1.5,1.7,2.2c1.6,2.1,3.1,4.2,4.6,6.4C188.5,24.5,188.4,24.6,188.1,25.1z M189.7,26.2
		c0-0.1,0.1-0.1,0.1-0.2c0.1,0.1,0.2,0.3,0.2,0.4C190,26.3,189.9,26.3,189.7,26.2z M191.7,25.3c-0.3-0.5-0.7-1.1-1-1.6c0,0,0,0,0,0
		c-0.9-1.4-1.8-2.7-2.8-4c1.1-0.3,1.8-0.5,2.9-0.8C191.4,21.2,191.6,23.5,191.7,25.3z M188,13.4c1,1,1.7,2.3,2.2,3.7
		c-1.3,0.3-2,0.5-3.6,1c-0.3-0.4-0.7-0.9-1-1.3c-1.7-2.3-3.4-4.4-4.9-6.7C182.7,10,185.5,10.7,188,13.4z M181.1,13.9
		c-1,1.9-1.4,2.6-2.2,4l-0.1,0.1c-2.9-3.5-1.1-6.7-0.3-7.8C179.4,11.4,180.2,12.7,181.1,13.9z"/>
	<path class="st1" d="M82.8,21.3c-0.1,0.1-0.2,0.1-0.3,0.2c-0.1,0.1-6.3,7.2,0.6,14.3c6.3,6.6,18.3,12.9,18.8,13.1c0,0,0,0,0,0
		c0.1,0.1,0.3,0.1,0.4,0.1c0,0,0,0,0,0l0,0c0,0,0,0,0,0c0.1,0,0.2,0,0.2,0c0,0,0.1,0,0.1,0c0,0,0.1,0,0.1-0.1c0,0,0,0,0,0
		c0,0,0,0,0,0c0.1-0.1,0.2-0.1,0.3-0.2c0,0,0,0,0-0.1c0.1-0.1,0.1-0.2,0.2-0.3c0,0,0,0,0,0c0-0.1,0-0.1,0-0.2c0-0.6,1-15.3-5.5-22.1
		c-4.7-5-10.1-5.4-12.9-5.2c-1.4-2.2-2.6-4.6-3.7-7.1c-0.2-0.5-0.8-0.7-1.3-0.5c-0.5,0.2-0.7,0.8-0.5,1.3
		C80.3,17,81.5,19.2,82.8,21.3z M96.8,42.5c-0.1,0.2-0.1,0.4-0.5,0.9c0,0,0,0.1,0,0.1c-3.4-2.1-7.5-4.9-10.5-7.8l0.6-1
		c0.9-1.7,1.4-2.6,2.5-4.6c0.8,1.1,1.6,2.2,2.5,3.3c2,2.7,4.1,5.4,6,8.2C96.9,42,96.9,42.2,96.8,42.5z M97.9,44.5
		C97.9,44.5,97.9,44.5,97.9,44.5c0.3-0.4,0.4-0.7,0.5-0.9c0.4,0.7,0.8,1.3,1.2,2C99.2,45.2,98.6,44.9,97.9,44.5z M101.3,44.4
		c-1.8-3-3.8-5.9-5.8-8.6c1.8-0.5,2.5-0.7,4.5-1.2C101,38.1,101.3,41.8,101.3,44.4z M96.3,27.5c1.3,1.4,2.3,3.2,3.1,5.2
		c-2,0.5-2.7,0.7-4.7,1.3l-0.4,0.1c-0.5-0.6-1-1.3-1.4-1.9c-2.3-3.1-4.6-6.1-6.7-9.3C88.6,22.9,92.7,23.7,96.3,27.5z M83.8,23
		c1.2,1.8,2.4,3.6,3.6,5.3c-1.4,2.6-1.9,3.5-2.9,5.4l-0.3,0.5C79.6,29.1,82.9,24.2,83.8,23C83.8,23,83.8,23,83.8,23z"/>
	<path class="st3" d="M116.5,9.3c-0.3,0-0.5-0.1-0.5-0.2c-0.1-0.1-0.1-0.1-0.1-0.2c0.2-1.1,0-2.1-0.7-2.7c-1.4-1.3-3.6-0.8-7.6,0.1
		c-0.1,0-0.3,0-0.3-0.1c0-0.6-0.5-1.9-2.6-2.5h0c-2.8-0.7-7.3,2.8-9.1,4.3c-0.9-0.3-1.9-0.6-2.9-1c-0.5-0.2-1.1,0.1-1.3,0.6
		c-0.2,0.5,0.1,1.1,0.6,1.3c0.9,0.3,1.8,0.6,2.7,0.9c0.5,1.7,2.7,8.5,6.4,9.3c2.5,0.5,3.6-0.5,3.9-1.2c0,0,0.3,0,0.7,0.1
		c2.8,1.5,5.1,2.2,6.8,2.2c0.8,0,1.5-0.2,2.1-0.5c0.9-0.6,1.3-1.5,1.1-2.7c0-0.1,0.4-0.3,0.9-0.3c3.1,0.2,5.3-0.4,6.5-1.7
		c1.1-1.1,1-2.4,1-2.5C124,12.1,123.4,8.8,116.5,9.3z M121.5,13.7c-0.6,0.6-1.9,1.2-4.9,1.1c-0.1,0-0.1,0-0.2,0
		c-0.9,0-1.7,0.4-2.3,1c-0.4,0.5-0.6,1.1-0.5,1.7c0.1,0.5-0.1,0.6-0.2,0.7c-0.4,0.2-2,0.8-6.9-1.7c-1.2-0.6-2.7-0.3-3.3,0.6
		c-0.2,0.3-0.9,0.4-1.8,0.2c-1.8-0.4-3.6-3.8-4.5-6.6c5.6,1.7,10.7,2.7,17.1,3.3c0,0,0.1,0,0.1,0c0.5,0,0.9-0.4,1-0.9
		c0.1-0.5-0.3-1-0.9-1.1c-6.2-0.6-11.1-1.5-16.5-3.2c2.3-1.7,5.1-3.4,6.4-3.1c1.1,0.3,1.1,0.7,1.1,0.8c0.1,0.5,0.3,1,0.8,1.3
		c0.5,0.4,1.2,0.5,1.9,0.4c3-0.7,5.2-1.2,5.9-0.5c0.2,0.1,0.2,0.4,0.1,0.8c-0.1,0.6,0.1,1.3,0.5,1.8c0.5,0.6,1.4,0.9,2.2,0.9
		c4.9-0.3,5.5,1.5,5.5,1.5C122.1,12.8,122,13.3,121.5,13.7z"/>
	<path class="st3" d="M247.5,17.8c-0.5-0.3-1.2-0.2-1.7,0.1c-2.4,1.5-6.5,4.6-7.7,8c-1.1,3.4,0.5,5.8,1.6,7c0.6,0.7,1.4,1,2.3,1
		c0.3,0,0.6,0,0.9-0.1c1.2-0.4,3.5-1.4,4.6-4.6c1.1-3.2,1.1-7.7,1-10C248.3,18.7,248,18.1,247.5,17.8z M245.5,28.6
		c-0.7,2.2-2.2,3-3.3,3.4c-0.4,0.1-0.8,0-1.1-0.3c-0.9-1-1.9-2.8-1.1-5.1c0.9-2.8,4.6-5.5,6.5-6.7C246.5,21.9,246.4,25.8,245.5,28.6
		z"/>
	<path class="st2" d="M152.7,43.6c0,0,0,0,0.1,0c0.1,0,0.2,0.1,0.2,0.3c1.1,5,2.9,7.5,5.4,7.5c1.1,0,2.1-0.5,3-1.5
		c0.1-0.2,0.4-0.3,0.7-0.3c0.3,0,0.7,0.1,0.9,0.3c2.5,2.4,4.6,3.1,6.3,3.1c2,0,3.3-1.1,3.3-1.1c0.1-0.1,1-0.9,1-2.4
		c0-1.8-1.2-3.8-3.6-5.9c-0.2-0.2-0.2-0.4-0.2-0.6c0-0.2,0.1-0.4,0.3-0.6c1.5-0.9,1.9-2,1.9-2.8c0.1-2.4-2.4-4-6.7-6
		c-0.1-0.1-0.2-0.2-0.2-0.2c0,0,0-0.2,0-0.2c0.6-0.8,1.3-2.3-0.3-4.3c-1.3-1.6-3.3-1.4-5.4-1.1c-0.7,0.1-1.4,0.2-2.2,0.2
		c-1.2,0.1-2.3,0.7-2.8,1.8c-0.5,1.1-0.4,2.4,0.3,3.4c1.6,2.3,3.3,4.4,5,6.3c-2.1-1.4-3.6-3.1-4.7-5c-0.7-1.2-2-1.9-3.4-1.8
		c-1.5,0.2-2.7,1.1-3.1,2.5c-0.9,2.7-0.8,5.1,0.2,6.8C149.7,43.7,151.2,44.3,152.7,43.6z M150.4,35.8c0.2-0.8,0.9-1.1,1.4-1.2
		c0.6-0.1,1.2,0.2,1.5,0.8c1.2,2.1,2.9,4,5.1,5.7c0.9,0.6,2,0.5,2.7-0.2c0.7-0.8,0.7-1.9,0-2.7c-1.6-1.9-3.3-4-4.8-6.2
		c-0.3-0.4-0.3-0.9-0.1-1.4c0.2-0.4,0.6-0.7,1.1-0.7c0.8,0,1.6-0.1,2.3-0.2c1.9-0.2,3-0.3,3.6,0.4c0.8,1,0.6,1.5,0.3,1.9
		c-0.4,0.5-0.5,1.2-0.3,1.9c0.2,0.7,0.6,1.2,1.3,1.5c2.8,1.3,5.6,2.8,5.6,4.1c0,0.5-0.5,0.9-1,1.2c-0.7,0.4-1.2,1.2-1.2,2.1
		c-0.1,0.9,0.3,1.7,0.9,2.2c2.5,2.2,2.9,3.7,2.9,4.3c0,0.7-0.4,1-0.4,1.1c-0.1,0.1-2.6,2.1-6.9-1.9c-0.6-0.6-1.5-0.9-2.4-0.8
		c-0.8,0-1.6,0.4-2.1,1c-0.5,0.6-1,0.9-1.5,0.8c-1.4,0-2.6-2.2-3.5-6c-0.2-0.7-0.6-1.4-1.3-1.7c-0.6-0.3-1.3-0.3-1.8,0
		c-0.3,0.1-0.8,0.4-1.4-0.7C149.7,39.8,149.7,38,150.4,35.8z"/>
	<path class="st3" d="M205.5,40.4c-0.4,0.5-0.9,1.5-0.1,3v0c0.8,1.4,3.1,2.2,7,2.2c0,0,0,0,0.1,0c0,0,0,0,0,0c1,2.6,1.6,4.5,1.6,4.6
		c0.1,0.4,0.5,0.7,0.9,0.7c0.1,0,0.2,0,0.3,0c0.5-0.2,0.8-0.7,0.7-1.2c0-0.1-0.6-2-1.6-4.6c0.4-0.3,0.7-0.6,1-1.1
		c1.9-3.4,2.5-5.8,1.6-7.1c-0.9-1.5-2-1.5-2.6-1.4c-0.3-3-0.8-4.9-2.4-5.5c-0.5-0.2-1.4-0.2-2.3,0.6c0,0-0.1,0-0.2-0.1
		c-0.9-1.8-1.9-2.9-3.2-3.3c-1.3-0.4-2.2,0.1-2.3,0.2c-0.1,0.1-1,0.6-1.3,1.9c-0.3,1.3,0.1,2.8,1.2,4.4c0.1,0.1,0,0.2,0,0.2
		c-1.2,0.4-1.5,1.2-1.7,1.7C201.7,37.2,203.1,38.6,205.5,40.4z M204,36c0-0.1,0.2-0.2,0.4-0.3c0.6-0.2,1-0.7,1.2-1.3
		c0.2-0.6,0.1-1.3-0.3-1.9c-1-1.5-1.1-2.4-1-2.9c0.1-0.5,0.4-0.7,0.4-0.7c0,0,0,0,0,0c0,0,0.3-0.1,0.8,0c0.5,0.2,1.2,0.7,2,2.3
		c0.3,0.6,0.8,1,1.5,1.2c0.6,0.1,1.2,0,1.7-0.4c0.2-0.2,0.4-0.2,0.5-0.2c0.3,0.1,0.8,0.9,1.1,3.9c0.1,0.6,0.4,1.1,0.8,1.4
		c0.4,0.3,0.9,0.4,1.4,0.3c0,0,0.1,0,0.1,0c0.1,0,0.3,0.1,0.5,0.5c0.3,0.5-0.1,2.3-1.7,5.1c0,0,0,0,0,0c-0.6-1.4-1.2-2.9-1.9-4.3
		c-0.2-0.5-0.8-0.7-1.3-0.5c-0.5,0.2-0.7,0.8-0.5,1.3c0.7,1.4,1.3,2.8,1.8,4.1c-2.8-0.1-4.3-0.7-4.6-1.2c-0.3-0.6-0.2-0.7-0.1-0.8
		c0.3-0.3,0.5-0.8,0.5-1.4c0-0.6-0.3-1.1-0.8-1.4C204.4,37.1,203.9,36.3,204,36z"/>
	<path class="st0" d="M91.9,252.8c1.7,0.3,2.8-0.3,3.4-0.9c1.8-1.8,1.7-4.9,0.9-9.8c-0.1-0.4,0.3-0.9,0.6-1c0.9-0.2,2.6-1,3.1-3.7
		c0.2-0.8,0.5-5-9.9-10.2c-0.2-1-0.5-2-0.9-3c-0.2-0.5-0.8-0.7-1.3-0.5c-0.5,0.2-0.7,0.8-0.5,1.3c0.3,0.8,0.6,1.7,0.8,2.6
		c-2.4,1.4-8.9,5.7-9.5,9.5v0c-0.5,2.9,1,3.8,1.8,4c0,0.1,0.1,0.3-0.2,0.7c-3.2,4.7-4.8,8-3.3,10c0.5,0.6,1.4,1.3,3.3,1
		c0.2,0,0.4,0.1,0.5,0.2c0.2,0.2,0.4,0.6,0.3,1c-0.3,3,0.3,5.3,1.8,6.8c1.9,2.1,4.5,2.1,4.6,2.1c0.1,0,0.9,0,1.7-0.8
		c1.3-1.4,1.9-4.1,1.7-8c0-0.5,0.3-0.8,0.4-0.9C91.4,252.8,91.7,252.8,91.9,252.8z M89.9,251.6c-0.7,0.6-1.1,1.5-1.1,2.5
		c0.3,6.3-1.5,6.9-1.4,6.9c0,0-1.9-0.1-3.2-1.5c-1.1-1.2-1.5-3-1.3-5.4c0.1-1-0.3-2-0.9-2.6c-0.6-0.5-1.4-0.8-2.1-0.7
		c-0.4,0.1-1.1,0.1-1.4-0.3c-1-1.4,2.3-6.2,3.3-7.8c0.5-0.8,0.7-1.7,0.4-2.4c-0.2-0.6-0.6-1-1.2-1.2c-0.2-0.1-0.7-0.2-0.5-1.9
		c0.4-2.3,4.6-5.6,7.9-7.7c0.7,6.2-1.1,13.1-2.7,19c-0.1,0.4-0.2,0.8-0.3,1.2c-0.1,0.5,0.2,1,0.7,1.2c0.5,0.1,1-0.2,1.2-0.7
		c0.1-0.4,0.2-0.8,0.3-1.2c1.6-6,3.5-13.1,2.8-19.5c3.8,2.1,8,5.4,7.6,7.4c-0.3,1.2-0.8,2-1.7,2.2c-1.3,0.3-2.3,1.8-2.1,3.2
		c0.6,4,0.8,6.9-0.4,8.1c-0.1,0.1-0.4,0.4-1.1,0.4c-0.2,0-0.3,0-0.5,0C91.4,250.7,90.6,251,89.9,251.6z"/>
	<path class="st3" d="M115.6,220.4c1-2.6,1.6-4.5,1.6-4.6c0.2-0.5-0.1-1.1-0.7-1.2c-0.1,0-0.2,0-0.3,0c-0.4,0-0.8,0.3-0.9,0.7
		c0,0-0.6,1.9-1.6,4.6c0,0,0,0,0,0c0,0,0,0-0.1,0c-3.9,0.1-6.2,0.8-7,2.2v0c-0.8,1.5-0.3,2.5,0.1,3c-2.4,1.8-3.8,3.3-3.4,4.9
		c0.1,0.5,0.5,1.3,1.7,1.7c0,0,0.1,0.1,0,0.2c-1.1,1.7-1.5,3.2-1.2,4.4c0.3,1.3,1.2,1.9,1.3,1.9c0.1,0.1,1.1,0.6,2.3,0.2
		c1.3-0.4,2.3-1.5,3.2-3.3c0.1-0.1,0.2-0.1,0.2-0.1c1,0.8,1.8,0.7,2.3,0.6c1.6-0.5,2.1-2.5,2.4-5.5c0.6,0.1,1.7,0.1,2.6-1.4
		c0.8-1.4,0.3-3.8-1.6-7.1C116.3,221,116,220.7,115.6,220.4z M116.5,227.6c-0.3,0.4-0.4,0.5-0.5,0.5c0,0-0.1,0-0.1,0
		c-0.5-0.1-1,0-1.4,0.3c-0.5,0.3-0.8,0.8-0.8,1.4c-0.3,3-0.8,3.8-1.1,3.9c-0.1,0-0.2,0-0.5-0.2c-0.5-0.4-1.1-0.5-1.7-0.4
		c-0.7,0.1-1.2,0.6-1.5,1.2c-0.8,1.6-1.5,2.1-2,2.3c-0.5,0.2-0.8,0-0.8,0c0,0,0,0,0,0c0,0-0.3-0.2-0.4-0.7c-0.1-0.5,0-1.4,1-2.9
		c0.4-0.6,0.5-1.2,0.3-1.9c-0.2-0.6-0.6-1.1-1.2-1.3c-0.3-0.1-0.4-0.2-0.4-0.3c-0.1-0.3,0.3-1.1,2.8-3c0.4-0.3,0.7-0.9,0.8-1.4
		c0-0.5-0.1-1-0.5-1.4c-0.1-0.1-0.2-0.2,0.1-0.8c0.3-0.5,1.8-1,4.6-1.2c-0.5,1.3-1.1,2.7-1.8,4.1c-0.2,0.5,0,1.1,0.5,1.3
		c0.5,0.2,1.1,0,1.3-0.5c0.7-1.5,1.3-3,1.9-4.3c0,0,0,0,0,0C116.4,225.2,116.8,227.1,116.5,227.6z"/>
	<path class="st2" d="M281.2,235.7c-0.2-3.5-0.6-5.8-2.3-6.5c-0.6-0.2-1.5-0.3-2.6,0.4c0,0-0.1,0-0.2,0c-0.1,0-0.2-0.1-0.2-0.2
		c-0.8-2.1-1.9-3.4-3.3-4c-0.5-0.2-0.9-0.2-1.3-0.2c-0.7,0-1.2,0.2-1.3,0.3c-0.1,0.1-1.2,0.6-1.6,2c-0.4,1.4-0.1,3.1,1,5.1
		c0.1,0.1,0,0.3,0,0.3c0,0.1-0.1,0.1-0.1,0.1c-1.3,0.4-1.8,1.2-2,1.7c-0.5,1.8,1,3.5,3.6,5.8c0,0,0,0,0,0c-0.5,0.4-1.3,1.5-0.5,3.3
		v0c0.4,0.8,1.1,1.4,2.3,1.9c2.2,0.9,4.7,0.8,6.8-0.2c2.2-1,3.8-2.9,4.4-5.2c0.4-1.2,0.3-2.2-0.1-3
		C283.2,235.7,281.8,235.6,281.2,235.7z M282.2,239.8c-0.5,1.7-1.7,3.2-3.4,4c-1.7,0.8-3.6,0.9-5.2,0.2c-0.9-0.4-1.2-0.7-1.2-0.9
		c-0.3-0.8-0.1-1,0-1.1c0.4-0.3,0.6-0.8,0.6-1.4c0-0.6-0.3-1.2-0.7-1.6c-2.2-1.9-3.2-3.1-3-3.8c0.1-0.2,0.5-0.4,0.6-0.4
		c0.6-0.2,1.1-0.6,1.4-1.3c0.3-0.7,0.2-1.4-0.1-2c-1-1.8-1-2.9-0.9-3.5c0.2-0.6,0.6-0.9,0.6-0.9c0,0,0,0,0,0c0,0,0.5-0.2,1,0.1
		c0.6,0.2,1.4,0.9,2.2,2.8c0.3,0.7,0.8,1.2,1.5,1.4c0.6,0.2,1.3,0.1,1.9-0.3c0.1-0.1,0.5-0.3,0.7-0.2c0.9,0.4,1,3.6,1.1,4.7
		c0,0.6,0.3,1.2,0.8,1.5c0.4,0.3,1,0.5,1.5,0.4c0.1,0,0.5-0.1,0.8,0.7C282.4,238.4,282.5,238.9,282.2,239.8z"/>
	<path class="st3" d="M215.1,262.4C215.1,262.4,215.2,262.4,215.1,262.4c1.8-2,4-6.9-0.3-11.4c-0.2-0.2-0.3-0.3-0.5-0.5c0,0,0,0,0,0
		c-5-4.9-13.6-9.4-13.9-9.6c0,0,0,0,0,0c-0.1-0.1-0.3-0.1-0.4-0.1c0,0,0,0,0,0l0,0l0,0c-0.1,0-0.2,0-0.2,0c0,0-0.1,0-0.1,0
		c0,0-0.1,0-0.1,0.1c0,0,0,0,0,0c0,0,0,0,0,0c-0.1,0.1-0.2,0.1-0.3,0.2c0,0,0,0,0,0.1c-0.1,0.1-0.1,0.2-0.2,0.3c0,0,0,0,0,0
		c0,0.1,0,0.1,0,0.2c0,0.5-0.7,11.8,4.3,17.1c3.6,3.8,7.7,4.2,9.9,4c1,1.7,2,3.4,2.8,5.3c0.2,0.5,0.8,0.7,1.3,0.5
		c0.5-0.2,0.7-0.8,0.5-1.3C216.9,265.7,216.1,264,215.1,262.4z M204.5,245.8L204.5,245.8c2.6,1.5,5.5,3.5,7.8,5.6l-0.4,0.7
		c-0.6,1.2-1,1.9-1.7,3.2c-0.6-0.7-1.1-1.5-1.7-2.2c-1.6-2.1-3.1-4.2-4.6-6.4C204.1,246.3,204.2,246.2,204.5,245.8z M202.8,244.7
		c0,0.1-0.1,0.1-0.1,0.2c-0.1-0.1-0.2-0.3-0.2-0.4C202.6,244.5,202.7,244.6,202.8,244.7z M200.8,245.5c0.3,0.5,0.7,1.1,1,1.6
		c0,0,0,0,0,0c0.9,1.4,1.8,2.7,2.8,4c-1.1,0.3-1.8,0.5-2.9,0.8C201.2,249.7,200.9,247.4,200.8,245.5z M204.6,257.5
		c-1-1-1.7-2.3-2.2-3.7c1.3-0.3,2-0.5,3.6-1c0.3,0.4,0.7,0.9,1,1.3c1.7,2.3,3.4,4.4,4.9,6.7C209.9,260.8,207.1,260.1,204.6,257.5z
		 M211.5,257c1-1.9,1.4-2.6,2.2-4l0.1-0.1c2.9,3.5,1.1,6.7,0.3,7.8C213.2,259.4,212.4,258.2,211.5,257z"/>
	<path class="st3" d="M318.7,261.9c-0.9-0.3-1.8-0.6-2.7-0.9c-0.5-1.7-2.7-8.5-6.4-9.3c-2.5-0.5-3.6,0.5-3.9,1.2c0,0-0.3,0-0.7-0.1
		c-2.8-1.5-5.1-2.2-6.8-2.2c-0.8,0-1.5,0.2-2.1,0.5c-0.9,0.6-1.3,1.5-1.1,2.7c0,0.1-0.4,0.3-0.9,0.3c-3.1-0.2-5.3,0.4-6.5,1.7
		c-1.1,1.1-1,2.4-1,2.5c0,0.4,0.6,3.8,7.6,3.3c0.3,0,0.5,0.1,0.5,0.2c0.1,0.1,0.1,0.1,0.1,0.2c-0.2,1.1,0,2.1,0.7,2.7
		c1.4,1.3,3.6,0.8,7.6-0.1c0.1,0,0.3,0,0.3,0.1c0,0.6,0.5,1.9,2.6,2.5h0c2.8,0.7,7.3-2.8,9.1-4.3c0.9,0.3,1.9,0.6,2.9,1
		c0.5,0.2,1.1-0.1,1.3-0.6C319.4,262.6,319.2,262,318.7,261.9z M296.4,258.8c6.2,0.6,11.1,1.5,16.5,3.2c-2.3,1.7-5.1,3.4-6.4,3.1
		c-1.1-0.3-1.1-0.7-1.1-0.8c-0.1-0.5-0.3-1-0.8-1.3c-0.5-0.4-1.2-0.5-1.9-0.4c-3,0.7-5.2,1.2-5.9,0.5c-0.2-0.1-0.2-0.4-0.1-0.8
		c0.1-0.6-0.1-1.3-0.5-1.8c-0.5-0.6-1.4-0.9-2.2-0.9c-4.9,0.3-5.5-1.5-5.5-1.5c0,0,0-0.5,0.5-1c0.6-0.6,1.9-1.2,4.9-1.1
		c0.1,0,0.1,0,0.2,0c0.9,0,1.7-0.4,2.3-1c0.4-0.5,0.6-1.1,0.5-1.7c-0.1-0.5,0.1-0.6,0.2-0.7c0.4-0.2,2-0.8,6.9,1.7
		c1.2,0.6,2.7,0.3,3.3-0.6c0.2-0.3,0.9-0.4,1.8-0.2c1.8,0.4,3.6,3.8,4.5,6.6c-5.6-1.7-10.7-2.7-17.1-3.3c0,0-0.1,0-0.1,0
		c-0.5,0-0.9,0.4-1,0.9C295.4,258.3,295.8,258.8,296.4,258.8z"/>
	<path class="st3" d="M150.7,236.8c-0.3,0-0.6,0-0.9,0.1c-1.2,0.4-3.5,1.4-4.6,4.6c-1.1,3.2-1.1,7.7-1,10c0,0.6,0.4,1.2,0.9,1.4
		c0.5,0.3,1.2,0.2,1.7-0.1c2.4-1.5,6.5-4.6,7.7-8c1.1-3.4-0.5-5.8-1.6-7C152.3,237.2,151.5,236.8,150.7,236.8z M152.6,244.3
		c-0.9,2.8-4.6,5.5-6.5,6.7c-0.1-2,0-6,0.9-8.8c0.7-2.2,2.2-3,3.3-3.4c0.4-0.1,0.8,0,1.1,0.3C152.4,240.2,153.4,242,152.6,244.3z"/>
	<path class="st0" d="M239.9,227.3c0,0,0,0-0.1,0c-0.1,0-0.2-0.1-0.2-0.3c-1.1-5-2.9-7.5-5.4-7.5c-1.1,0-2.1,0.5-3,1.5
		c-0.1,0.2-0.4,0.3-0.7,0.3c-0.3,0-0.7-0.1-0.9-0.3c-2.5-2.4-4.6-3.1-6.3-3.1c-2,0-3.3,1.1-3.3,1.1c-0.1,0.1-1,0.9-1,2.4
		c0,1.8,1.2,3.8,3.6,5.9c0.2,0.2,0.2,0.4,0.2,0.6c0,0.2-0.1,0.4-0.3,0.6c-1.5,0.9-1.9,2-1.9,2.8c-0.1,2.4,2.4,4,6.7,6
		c0.1,0.1,0.2,0.2,0.2,0.2c0,0,0,0.2,0,0.2c-0.6,0.8-1.3,2.3,0.3,4.3c1.3,1.6,3.3,1.4,5.4,1.1c0.7-0.1,1.4-0.2,2.2-0.2
		c1.2-0.1,2.3-0.7,2.8-1.8c0.5-1.1,0.4-2.4-0.3-3.4c-1.6-2.3-3.3-4.4-5-6.3c2.1,1.4,3.6,3.1,4.7,5c0.7,1.2,2,1.9,3.4,1.8
		c1.5-0.2,2.7-1.1,3.1-2.5c0.9-2.7,0.8-5.1-0.2-6.8C242.9,227.1,241.4,226.5,239.9,227.3z M242.2,235c-0.2,0.8-0.9,1.1-1.4,1.2
		c-0.6,0.1-1.2-0.2-1.5-0.8c-1.2-2.1-2.9-4-5.1-5.7c-0.9-0.6-2-0.5-2.7,0.2c-0.7,0.8-0.7,1.9,0,2.7c1.6,1.9,3.3,4,4.8,6.2
		c0.3,0.4,0.3,0.9,0.1,1.4c-0.2,0.4-0.6,0.7-1.1,0.7c-0.8,0-1.6,0.1-2.3,0.2c-1.9,0.2-3,0.3-3.6-0.4c-0.8-1-0.6-1.5-0.3-1.9
		c0.4-0.5,0.5-1.2,0.3-1.9c-0.2-0.7-0.6-1.2-1.3-1.5c-2.8-1.3-5.6-2.8-5.6-4.1c0-0.5,0.5-0.9,1-1.2c0.7-0.4,1.2-1.2,1.2-2.1
		c0.1-0.9-0.3-1.7-0.9-2.2c-2.5-2.2-2.9-3.7-2.9-4.3c0-0.7,0.4-1,0.4-1.1c0.1-0.1,2.6-2.1,6.9,1.9c0.6,0.6,1.5,0.9,2.4,0.8
		c0.8,0,1.6-0.4,2.1-1c0.5-0.6,1-0.9,1.5-0.8c1.4,0,2.6,2.2,3.5,6c0.2,0.7,0.6,1.4,1.3,1.7c0.6,0.3,1.3,0.3,1.8,0
		c0.3-0.1,0.8-0.4,1.4,0.7C242.8,231,242.9,232.8,242.2,235z"/>
	<path class="st1" d="M187,230.4c0.4-0.5,0.9-1.5,0.1-3v0c-0.8-1.4-3.1-2.2-7-2.2c0,0,0,0-0.1,0c0,0,0,0,0,0c-1-2.6-1.6-4.5-1.6-4.6
		c-0.1-0.4-0.5-0.7-0.9-0.7c-0.1,0-0.2,0-0.3,0c-0.5,0.2-0.8,0.7-0.7,1.2c0,0.1,0.6,2,1.6,4.6c-0.4,0.3-0.7,0.6-1,1.1
		c-1.9,3.4-2.5,5.8-1.6,7.1c0.9,1.5,2,1.5,2.6,1.4c0.3,3,0.8,4.9,2.4,5.5c0.5,0.2,1.4,0.2,2.3-0.6c0,0,0.1,0,0.2,0.1
		c0.9,1.8,1.9,2.9,3.2,3.3c1.3,0.4,2.2-0.1,2.3-0.2c0.1-0.1,1-0.6,1.3-1.9c0.3-1.3-0.1-2.8-1.2-4.4c-0.1-0.1,0-0.2,0-0.2
		c1.2-0.4,1.5-1.2,1.7-1.7C190.9,233.7,189.4,232.2,187,230.4z M188.6,234.9c0,0.1-0.2,0.2-0.4,0.3c-0.6,0.2-1,0.7-1.2,1.3
		c-0.2,0.6-0.1,1.3,0.3,1.9c1,1.5,1.1,2.4,1,2.9c-0.1,0.5-0.4,0.7-0.4,0.7c0,0,0,0,0,0c0,0-0.3,0.1-0.8,0c-0.5-0.2-1.2-0.7-2-2.3
		c-0.3-0.6-0.8-1-1.5-1.2c-0.6-0.1-1.2,0-1.7,0.4c-0.2,0.2-0.4,0.2-0.5,0.2c-0.3-0.1-0.8-0.9-1.1-3.9c-0.1-0.6-0.4-1.1-0.8-1.4
		c-0.4-0.3-0.9-0.4-1.4-0.3c0,0-0.1,0-0.1,0c-0.1,0-0.3-0.1-0.5-0.5c-0.3-0.5,0.1-2.3,1.7-5.1c0,0,0,0,0,0c0.6,1.4,1.2,2.9,1.9,4.3
		c0.2,0.5,0.8,0.7,1.3,0.5c0.5-0.2,0.7-0.8,0.5-1.3c-0.7-1.4-1.3-2.8-1.8-4.1c2.8,0.1,4.3,0.7,4.6,1.2c0.3,0.6,0.2,0.7,0.1,0.8
		c-0.3,0.3-0.5,0.8-0.5,1.4c0,0.6,0.3,1.1,0.8,1.4C188.2,233.8,188.6,234.5,188.6,234.9z"/>
	<path class="st3" d="M374.1,255c2,0,3.3-1.1,3.3-1.1c0.1-0.1,1-0.9,1-2.4c0-1.8-1.2-3.8-3.6-5.9c-0.2-0.2-0.2-0.4-0.2-0.6
		c0-0.2,0.1-0.4,0.3-0.6c1.5-0.9,1.9-2,1.9-2.8c0.1-2.4-2.4-4-6.7-6c-0.1-0.1-0.2-0.2-0.2-0.2c0,0,0-0.2,0-0.2
		c0.6-0.8,1.3-2.3-0.3-4.3c-1.3-1.6-3.3-1.4-5.4-1.1c-0.7,0.1-1.4,0.2-2.2,0.2c-1.2,0.1-2.3,0.7-2.8,1.8c-0.5,1.1-0.4,2.4,0.3,3.4
		c1.6,2.3,3.3,4.4,5,6.3c-2.1-1.4-3.6-3.1-4.7-5c-0.7-1.2-2-1.9-3.4-1.8c-1.5,0.2-2.7,1.1-3.1,2.5c-0.9,2.7-0.8,5.1,0.2,6.8
		c1,1.7,2.5,2.3,4,1.5c0,0,0,0,0.1,0c0.1,0,0.2,0.1,0.2,0.3c1.1,5,2.9,7.5,5.4,7.5c1.1,0,2.1-0.5,3-1.5c0.1-0.2,0.4-0.3,0.7-0.3
		c0.3,0,0.7,0.1,0.9,0.3C370.3,254.3,372.4,255,374.1,255z M366.8,249.7c-0.8,0-1.6,0.4-2.1,1c-0.5,0.6-1,0.9-1.5,0.8
		c-1.4,0-2.6-2.2-3.5-6c-0.2-0.7-0.6-1.4-1.3-1.7c-0.6-0.3-1.3-0.3-1.8,0c-0.3,0.1-0.8,0.4-1.4-0.7c-0.7-1.2-0.7-3,0-5.2
		c0.2-0.8,0.9-1.1,1.4-1.2c0.6-0.1,1.2,0.2,1.5,0.8c1.2,2.1,2.9,4,5.1,5.7c0.9,0.6,2,0.5,2.7-0.2c0.7-0.8,0.7-1.9,0-2.7
		c-1.6-1.9-3.3-4-4.8-6.2c-0.3-0.4-0.3-0.9-0.1-1.4c0.2-0.4,0.6-0.7,1.1-0.7c0.8,0,1.6-0.1,2.3-0.2c1.9-0.2,3-0.3,3.6,0.4
		c0.8,1,0.6,1.5,0.3,1.9c-0.4,0.5-0.5,1.2-0.3,1.9c0.2,0.7,0.6,1.2,1.3,1.5c2.8,1.3,5.6,2.8,5.6,4.1c0,0.5-0.5,0.9-1,1.2
		c-0.7,0.4-1.2,1.2-1.2,2.1c-0.1,0.9,0.3,1.7,0.9,2.2c2.5,2.2,2.9,3.7,2.9,4.3c0,0.7-0.4,1-0.4,1.1c-0.1,0.1-2.6,2.1-6.9-1.9
		C368.6,249.9,367.7,249.6,366.8,249.7z"/>
	<path class="st1" d="M325.4,244.7c1.9-3.4,2.5-5.8,1.6-7.1c-0.9-1.5-2-1.5-2.6-1.4c-0.3-3-0.8-4.9-2.4-5.5
		c-0.5-0.2-1.4-0.2-2.3,0.6c0,0-0.1,0-0.2-0.1c-0.9-1.8-1.9-2.9-3.2-3.3c-1.3-0.4-2.2,0.1-2.3,0.2c-0.1,0.1-1,0.6-1.3,1.9
		c-0.3,1.3,0.1,2.8,1.2,4.4c0.1,0.1,0,0.2,0,0.2c-1.2,0.4-1.5,1.2-1.7,1.7c-0.4,1.6,1.1,3.1,3.4,4.9c-0.4,0.5-0.9,1.5-0.1,3v0
		c0.8,1.4,3.1,2.2,7,2.2c0,0,0,0,0.1,0c0,0,0,0,0,0c1,2.6,1.6,4.5,1.6,4.6c0.1,0.4,0.5,0.7,0.9,0.7c0.1,0,0.2,0,0.3,0
		c0.5-0.2,0.8-0.7,0.7-1.2c0-0.1-0.6-2-1.6-4.6C324.9,245.5,325.2,245.1,325.4,244.7z M323.7,243.7
		C323.7,243.7,323.7,243.7,323.7,243.7c-0.6-1.4-1.2-2.8-1.9-4.3c-0.2-0.5-0.8-0.7-1.3-0.5c-0.5,0.2-0.7,0.8-0.5,1.3
		c0.7,1.4,1.3,2.8,1.8,4.1c-2.8-0.1-4.3-0.7-4.6-1.2c-0.3-0.6-0.2-0.7-0.1-0.8c0.3-0.3,0.5-0.8,0.5-1.4c0-0.6-0.3-1.1-0.8-1.4
		c-2.4-1.8-2.9-2.6-2.8-3c0-0.1,0.2-0.2,0.4-0.3c0.6-0.2,1-0.7,1.2-1.3c0.2-0.6,0.1-1.3-0.3-1.9c-1-1.5-1.1-2.4-1-2.9
		c0.1-0.5,0.4-0.7,0.4-0.7c0,0,0,0,0,0c0,0,0.3-0.1,0.8,0c0.5,0.2,1.2,0.7,2,2.3c0.3,0.6,0.8,1,1.5,1.2c0.6,0.1,1.2,0,1.7-0.4
		c0.2-0.2,0.4-0.2,0.5-0.2c0.3,0.1,0.8,0.9,1.1,3.9c0.1,0.6,0.4,1.1,0.8,1.4c0.4,0.3,0.9,0.4,1.4,0.3c0,0,0.1,0,0.1,0
		c0.1,0,0.3,0.1,0.5,0.5C325.7,239.1,325.3,240.9,323.7,243.7z"/>
	<path class="st3" d="M36.9,45c-0.2,0.2-0.3,0.4-0.5,0.5c0,0,0,0,0,0c-4.8,5.1-9,13.8-9.2,14.2c0,0,0,0,0,0
		c-0.1,0.1-0.1,0.3-0.1,0.4l0,0c0,0,0,0,0,0v0c0,0.1,0,0.2,0,0.2c0,0,0,0.1,0,0.1c0,0,0,0.1,0.1,0.1c0,0,0,0,0,0c0,0,0,0,0,0
		c0.1,0.1,0.1,0.2,0.2,0.2c0,0,0,0,0.1,0c0.1,0.1,0.2,0.1,0.3,0.2c0,0,0,0,0,0c0.1,0,0.1,0,0.2,0c0.5,0,11.9,0.4,17-4.7
		c3.7-3.7,4-7.8,3.8-10c1.6-1.1,3.4-2,5.2-2.9c0.5-0.2,0.7-0.8,0.5-1.3c-0.2-0.5-0.8-0.7-1.3-0.5c-1.7,0.8-3.3,1.7-4.9,2.7
		c0,0,0-0.1-0.1-0.1C46.2,42.6,41.3,40.6,36.9,45z M37.3,47.5l0.7,0.3c1.2,0.6,1.9,1,3.2,1.6c-0.7,0.6-1.5,1.1-2.2,1.7
		c-2,1.6-4.1,3.2-6.3,4.8c-0.3-0.2-0.4-0.3-0.9-0.6l-0.1-0.1C33.3,52.8,35.2,49.8,37.3,47.5z M30.6,57.5c0.1-0.1,0.1-0.2,0.2-0.4
		c0.1,0,0.1,0.1,0.2,0.1C30.8,57.3,30.7,57.4,30.6,57.5z M31.7,59.1c0.5-0.3,1.1-0.7,1.6-1.1c0,0,0,0,0,0c1.3-0.9,2.6-1.9,3.9-2.9
		c0.3,1.1,0.5,1.8,0.8,2.9C35.9,58.6,33.6,58.9,31.7,59.1z M43.6,55c-1,1-2.2,1.7-3.6,2.3c-0.4-1.3-0.6-2-1-3.5
		c0.4-0.3,0.9-0.7,1.3-1c2.2-1.8,4.4-3.5,6.6-5.1C46.8,49.6,46.2,52.4,43.6,55z M46.5,45.5c-1.3,0.9-2.5,1.7-3.6,2.6
		c-1.9-1-2.6-1.3-4.1-2.1L38.7,46C42.1,43,45.4,44.8,46.5,45.5z"/>
	<path class="st2" d="M20.4,43.3c0.1,0,2-0.7,4.6-1.7c0.3,0.4,0.6,0.7,1.1,0.9c3.4,1.8,5.8,2.3,7.2,1.5c1.4-0.9,1.5-2.1,1.3-2.7
		c3-0.4,4.9-1,5.4-2.6c0.2-0.5,0.2-1.4-0.6-2.3c0,0,0-0.1,0.1-0.2c1.8-0.9,2.9-2,3.2-3.3c0.4-1.3-0.2-2.2-0.2-2.3
		c-0.1-0.1-0.6-1-2-1.3c-1.3-0.3-2.8,0.2-4.4,1.3c-0.1,0.1-0.2,0-0.2,0c-0.5-1.1-1.2-1.5-1.8-1.6c-1.6-0.3-3.1,1.1-4.8,3.6
		c-0.5-0.4-1.5-0.9-3,0c0,0,0,0,0,0c-1.4,0.8-2.1,3.2-2.1,7c0,0,0,0,0,0.1c0,0,0,0,0,0c-2.6,1.1-4.5,1.7-4.5,1.7
		c-0.4,0.1-0.7,0.5-0.7,1c0,0.1,0,0.2,0.1,0.3C19.3,43.2,19.8,43.5,20.4,43.3z M27.3,34.3c0.6-0.3,0.7-0.2,0.8-0.1
		c0.4,0.3,0.9,0.5,1.4,0.5c0.6-0.1,1.1-0.3,1.4-0.8c1.8-2.5,2.5-2.9,2.9-2.9c0.1,0,0.2,0.2,0.3,0.4c0.2,0.6,0.7,1,1.3,1.2
		c0.6,0.2,1.3,0.1,1.9-0.3c1.4-1,2.3-1.1,2.8-1c0.5,0.1,0.7,0.4,0.7,0.4c0,0,0,0,0,0c0,0,0.1,0.3,0,0.8c-0.2,0.5-0.7,1.2-2.2,2
		c-0.6,0.3-1,0.9-1.1,1.5c-0.1,0.6,0,1.2,0.4,1.7c0.2,0.2,0.3,0.4,0.2,0.5c-0.1,0.3-0.9,0.8-3.9,1.2c-0.6,0.1-1.1,0.4-1.4,0.9
		c-0.3,0.4-0.4,0.9-0.2,1.4c0,0,0,0.1,0,0.1c0,0.1-0.1,0.3-0.5,0.6c-0.5,0.3-2.3,0-5.2-1.5c0,0,0,0,0,0c1.4-0.6,2.8-1.3,4.3-2
		c0.5-0.2,0.7-0.8,0.4-1.3c-0.2-0.5-0.8-0.7-1.3-0.4c-1.4,0.7-2.8,1.3-4.1,1.9C26.3,36.2,26.8,34.6,27.3,34.3z"/>
	<path class="st2" d="M30.4,255.2c0.1,0,2-0.7,4.6-1.7c0.3,0.4,0.6,0.7,1.1,0.9c3.4,1.8,5.8,2.3,7.2,1.5c1.4-0.9,1.5-2.1,1.3-2.7
		c3-0.4,4.9-1,5.4-2.6c0.2-0.5,0.2-1.4-0.6-2.3c0,0,0-0.1,0.1-0.2c1.8-0.9,2.9-2,3.2-3.3c0.4-1.3-0.2-2.2-0.2-2.3
		c-0.1-0.1-0.6-1-2-1.3c-1.3-0.3-2.8,0.2-4.4,1.3c-0.1,0.1-0.2,0-0.2,0c-0.5-1.1-1.2-1.5-1.8-1.6c-1.6-0.3-3.1,1.1-4.8,3.6
		c-0.5-0.4-1.5-0.9-3,0c0,0,0,0,0,0c-1.4,0.8-2.1,3.2-2.1,7c0,0,0,0,0,0.1c0,0,0,0,0,0c-2.6,1.1-4.5,1.7-4.5,1.7
		c-0.4,0.1-0.7,0.5-0.7,1c0,0.1,0,0.2,0.1,0.3C29.3,255.1,29.9,255.3,30.4,255.2z M37.4,246.2c0.6-0.3,0.7-0.2,0.8-0.1
		c0.4,0.3,0.9,0.5,1.4,0.5c0.6-0.1,1.1-0.3,1.4-0.8c1.8-2.5,2.5-2.9,2.9-2.9c0.1,0,0.2,0.2,0.3,0.4c0.2,0.6,0.7,1,1.3,1.2
		c0.6,0.2,1.3,0.1,1.9-0.3c1.4-1,2.3-1.1,2.8-1c0.5,0.1,0.7,0.4,0.7,0.4c0,0,0,0,0,0c0,0,0.1,0.3,0,0.8c-0.2,0.5-0.7,1.2-2.2,2
		c-0.6,0.3-1,0.9-1.1,1.5c-0.1,0.6,0,1.2,0.4,1.7c0.2,0.2,0.3,0.4,0.2,0.5c-0.1,0.3-0.9,0.8-3.9,1.2c-0.6,0.1-1.1,0.4-1.4,0.9
		c-0.3,0.4-0.4,0.9-0.2,1.4c0,0,0,0.1,0,0.1c0,0.1-0.1,0.3-0.5,0.6c-0.5,0.3-2.3,0-5.2-1.5c0,0,0,0,0,0c1.4-0.6,2.8-1.3,4.3-2
		c0.5-0.2,0.7-0.8,0.4-1.3c-0.2-0.5-0.8-0.7-1.3-0.4c-1.4,0.7-2.8,1.3-4.1,1.9C36.4,248,36.9,246.5,37.4,246.2z"/>
	<path class="st2" d="M399.3,224.6c0,0.1-0.4,2.1-0.7,4.8c-0.5,0.1-0.9,0.2-1.3,0.5c-3.2,2.1-4.8,4-4.7,5.6c0.1,1.7,1.1,2.3,1.7,2.5
		c-1.1,2.8-1.5,4.8-0.3,6c0.4,0.4,1.1,0.8,2.3,0.6c0,0,0.1,0.1,0.1,0.2c-0.1,2,0.4,3.5,1.3,4.4c1,0.9,2,0.9,2.2,0.9
		c0.1,0,1.2-0.1,2.1-1.1c0.9-1,1.2-2.5,1-4.5c0-0.1,0.1-0.2,0.1-0.2c1.2,0.2,1.9-0.3,2.3-0.8c1.1-1.3,0.5-3.2-0.8-5.9
		c0.6-0.2,1.5-0.9,1.5-2.6c0,0,0,0,0,0c0-1.6-1.8-3.3-5.2-5.2c0,0,0,0-0.1,0c0,0,0,0,0,0c0.3-2.8,0.7-4.8,0.7-4.8
		c0.1-0.4-0.1-0.9-0.5-1.1c-0.1,0-0.2-0.1-0.3-0.1C399.9,223.7,399.4,224.1,399.3,224.6z M403.8,235c0,0.6-0.2,0.7-0.3,0.7
		c-0.5,0.1-0.9,0.5-1.1,1c-0.2,0.5-0.2,1.1,0,1.6c1.3,2.7,1.3,3.6,1.1,3.9c0,0.1-0.2,0.1-0.5,0.1c-0.6-0.1-1.2,0.1-1.6,0.6
		c-0.5,0.5-0.7,1.1-0.6,1.8c0.2,1.7-0.1,2.6-0.5,3c-0.3,0.4-0.7,0.4-0.7,0.4c0,0,0,0,0,0c0,0-0.4,0-0.7-0.4
		c-0.4-0.4-0.8-1.2-0.7-2.9c0-0.7-0.3-1.3-0.8-1.7c-0.5-0.4-1.1-0.6-1.7-0.4c-0.3,0.1-0.5,0-0.5,0c-0.2-0.2-0.3-1.1,0.8-4
		c0.2-0.5,0.2-1.1-0.1-1.6c-0.2-0.5-0.7-0.8-1.1-0.9c0,0-0.1,0-0.1,0c-0.1-0.1-0.2-0.2-0.3-0.7c0-0.6,1.1-2,3.8-3.8c0,0,0,0,0,0
		c-0.1,1.5-0.3,3.1-0.3,4.7c0,0.5,0.4,1,1,1c0.5,0,1-0.4,1-1c0.1-1.5,0.2-3.1,0.3-4.5C402.7,233.3,403.8,234.5,403.8,235z"/>
	<path class="st3" d="M387.5,131.8c0.4-0.3,0.8-0.6,1-1c2.6,0.9,4.5,1.4,4.6,1.5c0.5,0.1,1.1-0.2,1.2-0.7c0-0.1,0-0.2,0-0.3
		c0-0.4-0.3-0.8-0.7-0.9c0,0-2-0.5-4.6-1.5c0,0,0,0,0,0c0,0,0,0,0-0.1c-0.2-3.9-1-6.2-2.4-6.9c0,0,0,0,0,0c-1.5-0.8-2.5-0.2-3,0.2
		c-1.9-2.3-3.4-3.7-5-3.3c-0.5,0.1-1.3,0.5-1.7,1.7c0,0-0.1,0.1-0.2,0c-1.7-1.1-3.2-1.4-4.5-1.1c-1.3,0.3-1.8,1.3-1.9,1.4
		c-0.1,0.1-0.5,1.1-0.1,2.3c0.4,1.2,1.6,2.3,3.4,3.1c0.1,0,0.1,0.1,0.1,0.2c-0.8,1-0.7,1.8-0.5,2.4c0.6,1.6,2.5,2.1,5.5,2.3
		c-0.1,0.6,0,1.7,1.5,2.6C381.8,134.4,384.2,133.8,387.5,131.8z M380.9,131.3C380.9,131.3,380.9,131.3,380.9,131.3
		c0.1-0.6,0-1.1-0.3-1.5c-0.3-0.5-0.8-0.7-1.4-0.8c-3-0.3-3.8-0.7-3.9-1c0-0.1,0-0.2,0.2-0.5c0.4-0.5,0.5-1.1,0.3-1.7
		c-0.2-0.6-0.6-1.2-1.2-1.5c-1.6-0.7-2.1-1.4-2.3-1.9c-0.2-0.4,0-0.8,0-0.8l0,0c0,0,0.2-0.3,0.7-0.4c0.5-0.1,1.4-0.1,2.9,0.9
		c0.6,0.4,1.3,0.4,1.9,0.2c0.6-0.2,1-0.7,1.2-1.2c0.1-0.3,0.2-0.4,0.3-0.4c0.3-0.1,1.1,0.3,3,2.7c0.3,0.4,0.9,0.7,1.4,0.7
		c0.5,0,1-0.2,1.3-0.5c0.1-0.1,0.2-0.2,0.8,0.1c0.5,0.2,1.1,1.8,1.3,4.5c-1.3-0.5-2.7-1.1-4.2-1.7c-0.5-0.2-1.1,0-1.3,0.5
		c-0.2,0.5,0,1.1,0.5,1.3c1.5,0.7,3,1.3,4.4,1.8c0,0,0,0,0,0c-2.8,1.7-4.6,2.1-5.1,1.8C381,131.6,380.9,131.5,380.9,131.3z"/>
	<path class="st3" d="M393.7,122.5c-0.3,0.5-0.3,1.2,0,1.7c0.3,0.5,0.9,0.9,1.5,0.9c2.3,0,6.8-0.1,10-1.3c3.1-1.2,4.2-3.4,4.5-4.7
		c0.1-0.3,0.1-0.6,0.1-0.9c0-0.9-0.4-1.7-1.1-2.3c-1.2-1-3.7-2.6-7.1-1.4C398.1,115.9,395.2,120.1,393.7,122.5z M402.2,116.5
		c2.3-0.8,4,0.1,5.1,1c0.3,0.3,0.5,0.7,0.4,1.1c-0.3,1.1-1.1,2.5-3.3,3.3c-2.8,1-6.7,1.1-8.8,1.1
		C396.9,121.2,399.5,117.5,402.2,116.5z"/>
	<path class="st3" d="M365.9,77.9c1.7-0.8,3.3-1.7,4.9-2.7c0,0,0,0.1,0.1,0.1c2,1.7,6.9,3.7,11.3-0.7c0.2-0.2,0.3-0.4,0.5-0.5
		c0,0,0,0,0,0c4.8-5.1,9-13.8,9.2-14.2c0,0,0,0,0,0c0.1-0.1,0.1-0.3,0.1-0.4c0,0,0,0,0,0c0,0,0,0,0,0l0,0c0-0.1,0-0.2,0-0.2
		c0,0,0-0.1,0-0.1c0,0,0-0.1-0.1-0.1c0,0,0,0,0,0c0,0,0,0,0,0c-0.1-0.1-0.1-0.2-0.2-0.2c0,0,0,0-0.1,0c-0.1-0.1-0.2-0.1-0.3-0.2
		c0,0,0,0,0,0c-0.1,0-0.1,0-0.2,0c-0.5,0-11.9-0.4-17,4.7c-3.7,3.7-4,7.8-3.8,10c-1.6,1.1-3.4,2-5.2,2.9c-0.5,0.2-0.7,0.8-0.5,1.3
		C364.8,77.9,365.4,78.1,365.9,77.9z M372.5,74c1.3-0.9,2.5-1.7,3.6-2.6c1.9,1,2.6,1.3,4.1,2.1l0.1,0.1
		C377,76.5,373.7,74.8,372.5,74z M381.8,72l-0.7-0.3c-1.2-0.6-1.9-1-3.2-1.6c0.7-0.6,1.5-1.1,2.2-1.7c2-1.6,4.1-3.2,6.3-4.8
		c0.3,0.2,0.4,0.3,0.9,0.6l0.1,0.1C385.8,66.7,383.8,69.7,381.8,72z M388.5,62.1c-0.1,0.1-0.1,0.2-0.2,0.4c-0.1,0-0.1-0.1-0.2-0.1
		C388.2,62.2,388.4,62.2,388.5,62.1z M387.4,60.5c-0.5,0.4-1.1,0.7-1.6,1.1c0,0,0,0,0,0c-1.3,0.9-2.6,1.9-3.9,2.9
		c-0.3-1.1-0.5-1.8-0.8-2.9C383.2,60.9,385.5,60.6,387.4,60.5z M375.5,64.5c1-1,2.2-1.7,3.6-2.3c0.4,1.3,0.6,2,1,3.5
		c-0.4,0.3-0.9,0.7-1.3,1c-2.2,1.8-4.4,3.5-6.6,5.1C372.3,69.9,372.9,67.1,375.5,64.5z"/>
	<path class="st3" d="M385.7,174.4c0.6-0.2,1.1-0.6,1.2-1.2c0.2-0.6,0-1.2-0.4-1.6c-2-2-5.9-5.4-9.5-5.8c-3.5-0.4-5.6,1.7-6.5,3
		c-0.5,0.7-0.7,1.6-0.5,2.5c0.1,0.3,0.2,0.6,0.3,0.8c0.6,1.1,2.1,3.1,5.5,3.5C379.1,175.9,383.4,175,385.7,174.4z M372,171
		c-0.2-0.4-0.2-0.8,0.1-1.2c0.8-1.1,2.3-2.5,4.7-2.2c2.9,0.3,6.3,3.3,8,4.9c-2,0.5-5.8,1.3-8.8,0.9C373.6,173.3,372.5,172,372,171z"
		/>
	<path class="st2" d="M376.1,51.9c1.3,0.3,2.8-0.2,4.4-1.3c0.1-0.1,0.2,0,0.2,0c0.5,1.1,1.2,1.5,1.8,1.6c1.6,0.3,3.1-1.1,4.8-3.6
		c0.5,0.4,1.5,0.9,3,0h0c1.4-0.8,2.1-3.2,2.1-7c0,0,0,0,0-0.1c0,0,0,0,0,0c2.6-1.1,4.5-1.7,4.5-1.7c0.4-0.1,0.7-0.5,0.7-1
		c0-0.1,0-0.2-0.1-0.3c-0.2-0.5-0.7-0.8-1.3-0.6c-0.1,0-2,0.7-4.6,1.7c-0.3-0.4-0.6-0.7-1.1-0.9c-3.4-1.8-5.8-2.3-7.2-1.5
		c-1.4,0.9-1.5,2.1-1.3,2.7c-3,0.4-4.9,1-5.4,2.6c-0.2,0.5-0.2,1.4,0.6,2.3c0,0,0,0.1-0.1,0.2c-1.8,0.9-2.9,2-3.2,3.3
		c-0.4,1.3,0.2,2.2,0.2,2.3C374.2,50.7,374.8,51.7,376.1,51.9z M375.8,48.8c0.2-0.5,0.7-1.2,2.2-2c0.6-0.3,1-0.9,1.1-1.5
		c0.1-0.6,0-1.2-0.4-1.7c-0.2-0.2-0.3-0.4-0.2-0.5c0.1-0.3,0.9-0.8,3.9-1.2c0.6-0.1,1.1-0.4,1.4-0.9c0.3-0.4,0.4-0.9,0.2-1.4
		c0,0,0-0.1,0-0.1c0-0.1,0.1-0.3,0.5-0.6c0.5-0.3,2.3,0,5.2,1.5c0,0,0,0,0,0c-1.4,0.6-2.8,1.3-4.3,2c-0.5,0.2-0.7,0.8-0.4,1.3
		c0.2,0.5,0.8,0.7,1.3,0.4c1.4-0.7,2.8-1.3,4.1-1.9c-0.1,2.8-0.6,4.3-1,4.6c-0.6,0.3-0.7,0.2-0.8,0.1c-0.4-0.3-0.9-0.5-1.4-0.5
		c-0.6,0.1-1.1,0.3-1.4,0.8c-1.8,2.5-2.5,2.9-2.9,2.9c-0.1,0-0.2-0.2-0.3-0.4c-0.2-0.6-0.7-1-1.3-1.2c-0.6-0.2-1.3-0.1-1.9,0.3
		c-1.4,1-2.3,1.1-2.8,1c-0.5-0.1-0.7-0.4-0.7-0.4c0,0,0,0,0,0C375.8,49.6,375.7,49.3,375.8,48.8z"/>
	<path class="st1" d="M393.6,86.4c-0.4-1.2-1.5-3.5-4.7-4.5c-3.3-1-7.7-0.9-10-0.8c-0.6,0-1.1,0.4-1.4,0.9c-0.3,0.5-0.2,1.2,0.1,1.7
		c1.6,2.3,4.8,6.4,8.2,7.5c3.4,1.1,5.8-0.6,7-1.7c0.7-0.6,1-1.5,1-2.3C393.7,87,393.6,86.7,393.6,86.4z M391.4,88.2
		c-1,1-2.7,2-5,1.3c-2.8-0.9-5.6-4.4-6.9-6.3c2-0.1,6-0.2,8.8,0.7c2.2,0.7,3.1,2.1,3.4,3.2C391.8,87.4,391.7,87.8,391.4,88.2z"/>
	<path class="st1" d="M405.7,167.5c0,0,0-0.1,0-0.1c0.5-2.6,0-7.8-6-9.6c-0.2-0.1-0.5-0.1-0.7-0.2c0,0,0,0,0,0
		c-6.7-1.8-16.4-1.4-16.9-1.4c0,0,0,0,0,0c-0.1,0-0.3,0-0.4,0.1c0,0,0,0,0,0l0,0l0,0c-0.1,0-0.1,0.1-0.2,0.1c0,0,0,0-0.1,0.1
		c0,0-0.1,0.1-0.1,0.1c0,0,0,0,0,0c0,0,0,0,0,0c-0.1,0.1-0.1,0.2-0.1,0.3c0,0,0,0,0,0.1c0,0.1,0,0.2,0,0.3c0,0,0,0,0,0
		c0,0.1,0,0.1,0.1,0.2c0.2,0.4,5.2,10.6,12.2,12.7c5,1.5,8.8-0.2,10.6-1.4c1.7,0.9,3.4,2,5.1,3.2c0.4,0.3,1.1,0.2,1.4-0.2
		c0.3-0.4,0.2-1.1-0.2-1.4C408.8,169.4,407.3,168.4,405.7,167.5z M388.1,158.3L388.1,158.3c3,0,6.5,0.3,9.5,1l0,0.7
		c0,1.3,0.1,2.1,0.1,3.6c-0.9-0.4-1.7-0.7-2.5-1.1c-2.4-1-4.8-2.1-7.2-3.2C388.1,159,388.1,158.9,388.1,158.3z M386.2,158.2
		c0,0.1,0,0.1,0,0.2c-0.1-0.1-0.3-0.1-0.4-0.2C385.9,158.2,386,158.2,386.2,158.2z M384.9,159.9c0.6,0.3,1.1,0.6,1.7,0.9
		c0,0,0,0,0,0c1.5,0.7,2.9,1.4,4.4,2.1c-0.8,0.8-1.3,1.3-2.1,2.1C387.2,163.4,385.9,161.5,384.9,159.9z M394.1,168.4
		c-1.3-0.4-2.6-1.2-3.8-2.1c0.9-0.9,1.5-1.5,2.6-2.6c0.5,0.2,1,0.4,1.5,0.7c2.6,1.1,5.1,2.2,7.6,3.4
		C400.3,168.7,397.6,169.5,394.1,168.4z M403.8,166.5c-1.3-0.7-2.7-1.3-4.1-2c0-2.1-0.1-3-0.1-4.6l0-0.1
		C403.9,161.4,404,165.2,403.8,166.5z"/>
	<path class="st3" d="M415.2,153.5c-0.4-1.3-1.5-2.4-3.3-3.3c-0.1-0.1-0.1-0.2-0.1-0.2c0.8-0.9,0.8-1.8,0.6-2.3
		c-0.5-1.6-2.4-2.2-5.4-2.5c0.1-0.6,0.1-1.7-1.4-2.6c0,0,0,0,0,0c-1.4-0.8-3.8-0.3-7.2,1.5c0,0,0,0-0.1,0c0,0,0,0,0,0
		c-2.2-1.8-3.6-3.2-3.6-3.2c-0.3-0.3-0.8-0.3-1.2-0.1c-0.1,0-0.2,0.1-0.2,0.2c-0.4,0.4-0.4,1,0,1.4c0.1,0.1,1.5,1.4,3.7,3.2
		c-0.2,0.4-0.3,0.9-0.3,1.4c0,3.9,0.7,6.2,2.1,7c1.5,0.8,2.5,0.3,3-0.1c1.7,2.4,3.2,3.9,4.8,3.5c0.5-0.1,1.3-0.5,1.8-1.7
		c0,0,0.1,0,0.2,0c1.6,1.1,3.1,1.6,4.4,1.3c1.3-0.3,1.9-1.2,1.9-1.3C415,155.7,415.6,154.8,415.2,153.5z M413.2,154.8
		C413.2,154.8,413.2,154.8,413.2,154.8c0,0-0.2,0.3-0.7,0.4c-0.5,0.1-1.4,0-2.8-1c-0.6-0.4-1.2-0.5-1.9-0.3
		c-0.6,0.2-1.1,0.6-1.3,1.2c-0.1,0.3-0.2,0.4-0.3,0.4c-0.3,0.1-1.1-0.4-2.9-2.8c-0.3-0.5-0.8-0.7-1.4-0.8c-0.5,0-1,0.1-1.4,0.5
		c0,0,0,0-0.1,0.1c-0.1,0.1-0.3,0.1-0.7-0.2c-0.5-0.3-1.1-2.1-1.1-5.3c0,0,0,0,0,0c1.2,0.9,2.5,1.9,3.8,2.8c0.4,0.3,1.1,0.2,1.4-0.2
		c0.3-0.4,0.2-1.1-0.2-1.4c-1.3-0.9-2.5-1.8-3.6-2.7c2.5-1.3,4.1-1.6,4.5-1.3c0.5,0.3,0.5,0.5,0.5,0.6c-0.1,0.5,0,1,0.2,1.4
		c0.3,0.5,0.8,0.8,1.4,0.8c3,0.4,3.8,0.8,3.9,1.2c0,0.1,0,0.2-0.2,0.5c-0.4,0.5-0.5,1.1-0.4,1.7c0.1,0.7,0.6,1.2,1.2,1.5
		c1.6,0.8,2.1,1.5,2.2,2C413.4,154.5,413.3,154.8,413.2,154.8z"/>
</g>
</svg>
