<?xml version="1.0" encoding="utf-8"?>
<!-- Generator: Adobe Illustrator 19.2.1, SVG Export Plug-In . SVG Version: 6.00 Build 0)  -->
<svg version="1.1" id="Layer_1" xmlns="http://www.w3.org/2000/svg" xmlns:xlink="http://www.w3.org/1999/xlink" x="0px" y="0px"
	 viewBox="0 0 565.2 126" style="enable-background:new 0 0 565.2 126;" xml:space="preserve">
<style type="text/css">
	.st0{fill:#4D2956;}
</style>
<g id="Zu3h9G.tif">
	<g>
		<path class="st0" d="M407,11c6,3.9,6.4,12.4,3.5,18.3c-4.4,9-9,17.8-13.6,26.7c-2.4,4.5-4.6,9.1-6.8,13.6
			c-0.5,1.1-1.1,2.2-1.6,3.2c-0.5,1-1.6,2.5-1.8,3.6c-0.1,0.5-0.3,0.5,0,0.9c0.5,0.6,3.3,1,4,1.2c4.4,1.4,8.9,3.2,12.2,6.5
			c1.1,1.1,2.5,3.1,2.6,4.8c0.2,1.9-1.9,4-3,5.3c-2.7,3.1-6.8,7.5-11.2,4.8c-1.9-1.1-3.7-3.1-5-4.8c-0.6-0.8-1.2-1.7-1.7-2.6
			c-0.5-1-0.6-2.1-1.2-3c-1,1.9,0.8,5.6,1.6,7.5c1,2.3,2.6,4.3,4.5,6c1.7,1.5,3.7,2.7,5.9,3.4c2.3,0.8,4.8,0.5,7.1,1.3
			c-1,1.1-1.8,1.3-3.2,1.8c-1,0.3-3.1,0.5-3.7,1.5c-1,1.6,2.4,4.9,3.3,6.1c-1.4,0-3.9,0.5-5.2,0c-0.5-0.2-0.9-0.8-1.5-1
			c-0.6-0.2-1.2-0.1-1.8-0.2c-2.4-0.6-5-2.4-6.6-4.2c-1.9-2.2-3.4-5.2-4.2-8c-1-3.1-0.3-6.7-1.8-9.6c-1.5,1.9-2.5,4.6-3.6,6.8
			c-0.7,1.5-1.7,4.6-3.6,5c-2.2,0.4-3-2.2-2.6-3.8c0.3-1.2,0.8-2.3,1.1-3.4c0.2-0.5,1.4-3,1.1-3.6c-0.5-1.2-3.2,1.6-4,2.2
			c-1.9,1.2-3.9,2.4-6,3.1c-2.2,0.7-4.5,1-6.8,1c-2.7-0.1-4.4-1.1-6.6-2.6c1.2-0.2,2.3-0.3,3.5-0.5c1.2-0.1,1.8-0.6,2.9-1.1
			c-1.8-0.9-3.3-1.9-4.7-3.3c-0.8-0.8-3.2-2.5-2.9-3.8c4.5,2.7,9.9,2.8,14.9,1.3c2.3-0.7,4.5-1.8,6.5-3.1c2-1.4,4.2-2.8,5.7-4.6
			c-6.5,1.3-17.3,7.8-21.1-1.4c-1.6-3.8-1.6-9.4,1.4-12.5c2.9-3,8.3-2.6,11.9-1.3c2,0.7,4,1.3,5.9,2.1c1.1,0.4,2.1,0.9,3.1,1.5
			c0.6,0.4,1.7,1.5,2.6,1.2c1.4-0.5,1.8-4.4,2.2-5.6c0.8-2.6,1.5-5.2,2.3-7.7c2.9-9.9,6.2-19.7,9.2-29.5c0.8-2.7,1.7-5.3,2.6-8
			c0.7-2.2,1.4-4.2,2.8-6.1c1.3-1.7,2.9-3,4.8-4.1c0.9-0.6,1.5-1.1,2.5-1.3C403.9,10.7,405.7,11,407,11C412.6,14.6,405.3,11,407,11z
			 M396.2,95.2c1.6-0.9,2.2-1.2,1.2-3c-0.8-1.6-1.9-2.7-3.3-3.8c-3.1-2.3-6.2-3.9-9.9-4.9C386.5,89.3,389.5,94.5,396.2,95.2
			C396.5,95,392.5,94.8,396.2,95.2z M363.4,82.7c2.7-0.9,6.1-1.3,8.3-3.2c-2-1.4-4.1-1.9-6.4-2.6c-2.9-0.8-4.8-0.8-7.7,0.2
			c-0.8,0.3-1.9,0.3-1.9,1.4c0,0.7,1.2,1.6,1.7,2C359,82,361.2,82.7,363.4,82.7C365.4,82.1,359.7,82.7,363.4,82.7z"/>
		<path class="st0" d="M544.5,55.1c-1.1,0.2-0.7,1-0.9,1.8c-0.2,1.1-0.9,2.3-1.3,3.4c-1.2,3-2.4,6.1-3.6,9.1
			c-2.1,5.5-4.2,11-6.1,16.6c-1.6,4.7-3.2,9.7-8.1,11.9c-2.4,1.1-5,1.6-7.7,1.3c-1.7-0.2-4.3-0.5-5.5-1.9c-1.4-1.7-1.1-3.7,0.4-5.1
			c1.8-1.7,3.6-0.7,5.7-0.5c4,0.3,6.2-5.6,5.3-8.9c-0.8-2.7-2.2-5.5-3.3-8.1c-1.1-2.7-2.1-5.5-3.2-8.2c-1-2.7-2.1-5.5-3.2-8.2
			c-0.9-2.3-2.2-4.7-0.9-7.1c1.1-2.1,3.2-3.2,5.3-1.9c2.5,1.6,3,3.7,3.9,6.4c1,3.2,2.2,6.3,3.3,9.4c1.1,3,1.9,6.6,3.7,9.3
			c1.8-6.7,4.4-13.3,6.7-19.9c0.8-2.3,1.9-5.8,4.9-5.8c1.2,0,3,0.8,3.8,1.6c0.7,0.7,0.6,0.9,0.6,1.9
			C544.5,53.1,544.5,54.1,544.5,55.1C543.2,55.3,544.5,53.6,544.5,55.1z"/>
		<path class="st0" d="M21.4,51.3c1.1-0.6,2.1-1.1,3.3-1.3c1-0.2,1.4-0.1,1.8-1.1c0.4-1.1,0.1-2.8,0.1-3.9c0-1.5-0.2-3.1,0.1-4.6
			c0.5-2.2,2.8-3.8,5-3.4c2.8,0.5,3.8,2.5,3.8,5c0,1.5,0,3,0,4.5c0,0.7-0.3,2,0.1,2.6c0.7,1.3,3.8,0.5,5,1c1.6,0.6,2.8,2.7,2.2,4.4
			c-0.9,2.3-3.6,1.7-5.5,2c-2.7,0.4-1.8,4-1.8,5.9c0,3.2,0,6.4,0,9.6c0,1.9-0.3,4.5,1.5,5.7c2.1,1.4,3.8-0.7,5.8-0.3
			c2,0.4,3.5,2.3,2.8,4.3c-0.8,2.3-3.1,2.8-5.2,3.4c-4.5,1.2-11.4,0.7-13.5-4.4c-1.1-2.8-0.6-6.3-0.6-9.2c0-3.5,0-7.1,0-10.6
			c0-1.7,0.3-3.2-1.4-4c-1-0.4-1.9-0.7-2.8-1.2c-0.9-0.6-0.7-0.4-1-1.4C21.2,53.4,21.4,52.2,21.4,51.3
			C22.2,50.9,21.4,52.6,21.4,51.3z"/>
		<path class="st0" d="M107.4,66.8c0,3.1-0.2,6.2,0.3,9.2c0.4,2.7,2.4,5.8,0.3,8.2c-2,2.3-4.8,1.3-6.7-0.4c-0.8-0.7-1.7-2-2.8-2.2
			c-1.3-0.2-2.4,0.9-3.3,1.5c-5,3.5-13.1,4-17.6-0.6c-0.9-0.9-2.1-2-2.6-3.2c-0.5-1.2-0.5-2.9-0.6-4.1c-0.2-2.5,0.8-4.8,2.5-6.6
			c2.1-2.2,4.6-3.1,7.5-3.7c3.5-0.7,7.1-1.5,10.6-2.4c1-0.3,2.8-0.3,3.1-1.3c0-0.1-0.2-0.8-0.3-0.9c-0.1-0.7-0.1-1.4-0.3-2.1
			c-0.9-2.9-4.9-3.5-7.4-2.8c-2.5,0.6-4.8,1.6-6.2,3.8c-1.1,1.8-2.5,4.1-4.8,3.1c-2.3-0.9-3.3-3-2.9-5.4c0.5-2.6,2.5-4.3,4.7-5.6
			c5.8-3.5,14.4-3.7,20.6-0.9c2.4,1.1,4.1,3,5,5.4C107.7,59.3,106.8,63,107.4,66.8C107.4,68.6,107,63.9,107.4,66.8z M89.2,79.2
			c3.4-0.9,6.9-1.4,8.1-5.2c0.3-1.1,1.7-4.7,0.9-5.7c-0.8-1.1-3.6,0.5-4.6,0.7c-3.2,0.7-7.4,0.6-9.4,3.8
			C81.8,76.8,86.1,78.3,89.2,79.2C90.4,78.9,88,78.9,89.2,79.2z"/>
		<path class="st0" d="M339.8,43.1c-0.1-11.2,15.3-6.9,21.9-6.8c2.6,0,5,0.5,7.6,0.7c0.7,0.1,2.7,0.5,3.2-0.2
			c0.6-0.7,0.1-2.9,0.2-3.8c0.1-1.9,1.3-4.6,3.5-4.7c1.6-0.1,3.3,1.5,4,2.8c0.5,0.9,0.6,1.8,0.6,2.7c0,1-0.4,2.4,0.1,3.3
			c0.7,1.5,3,0.3,4.3,0.7c1.4,0.5,0.5,2,0.2,3.2c-1.3,5.2-2.9,10.5-4.8,15.6c-0.9,2.3-1.2,2.3-3.5,1.7c-2.7-0.7-5.4-1.5-8.1-2.2
			c-5.9-1.6-11.9-2.9-17.8-4.6C346.6,50.3,339.8,49.2,339.8,43.1C339.7,38.6,339.8,46.1,339.8,43.1z"/>
		<path class="st0" d="M167.9,69.3c-1.8,0-3.5,0-5.3,0c-1.2,0-3.6-0.5-4.7,0.2c-1.6,0.9,0.7,5.4,1.5,6.6c3.2,4.7,10,3.4,13.7,0.2
			c2-1.7,3.7-4.1,6.7-3.1c2,0.7,2,2.8,1.4,4.5c-2.2,5.5-9.1,8.1-14.7,8.1c-5.6,0-11.9-2.2-15.3-6.9c-3.6-5.1-4.4-11.7-2.7-17.6
			c1.4-5.1,4.4-9.4,9.5-11.3c4.8-1.8,9.7-2,14.5-0.1c5.2,2,8.8,6.8,9.6,12.3c0.4,3-0.1,6.2-3.5,7C177.8,69.3,167.9,69.3,167.9,69.3
			C165,69.3,167.9,69.3,167.9,69.3z M165.1,64c2.2,0,4.5,0.2,6.7,0c2.1-0.2,1-1.7,0.6-3.2c-0.8-3-3.8-5.9-7.2-5.8
			c-3.4,0.1-6.2,2.6-7.1,5.8c-0.3,1.1-1.1,2.5,0.3,3.1c0.8,0.3,2.4,0,3.3,0C162.9,64,164,64,165.1,64C167.4,64,162.9,64,165.1,64z"
			/>
		<path class="st0" d="M226.2,69.3c-1.7,0-3.4,0-5,0c-1.1,0-4-0.5-4.9,0.1c-1.8,1.3,0.4,5.3,1.4,6.5c3.7,4.5,9.9,3.6,14,0.2
			c1.9-1.6,3.6-4.2,6.4-2.8c2.6,1.2,1.8,4.1,0.6,6c-2.8,4.6-9.8,6.9-14.9,6.4c-3.1-0.3-6.3-0.6-8.9-2.2c-2.5-1.5-4.8-3.6-6.4-6
			c-3-4.7-3.1-12-1.5-17.2c3.3-10.7,16-14.4,25.5-9.7c4.6,2.3,7.9,7.8,8.1,12.9c0.1,2.6-0.9,5-3.6,5.6
			C235.9,69.3,226.2,69.3,226.2,69.3C223.1,69.3,226.2,69.3,226.2,69.3z M223.7,64c2,0,4.1,0.1,6.2,0c1.7-0.1,1.2-0.9,0.8-2.3
			c-1-3.5-3.3-6.6-7.3-6.6c-3.3,0-6.2,2.6-7.3,5.6c-0.5,1.4-0.9,3.1,0.9,3.3C219.2,64.3,221.6,64,223.7,64
			C225.7,64,221.5,64,223.7,64z"/>
		<path class="st0" d="M308.8,85.8c-5.8-0.5-15-2.2-15.5-9.5c-0.2-3,2.6-5.1,5.5-3.9c1.3,0.5,1.6,1.7,2.3,2.8c0.9,1.5,2.3,2.8,4,3.4
			c1.6,0.5,3.5,0.4,5.1,0.4c1.5,0,2.7-0.3,3.8-1.5c3-3.2-0.9-5.2-3.7-6.4c-5.7-2.3-14.8-2.5-16.7-9.9c-1.4-5.9,3.6-11.1,9.1-12.1
			c6.3-1.1,14.1-1,18.3,4.7c1.9,2.6,1.8,6.4-2,7.1c-3.4,0.7-5.3-4.1-8.1-5.3c-2.3-1-6.3-1.2-8,0.9c-2.7,3.3,3.5,5.2,5.6,5.8
			c6.7,1.7,17.5,4.5,15.5,13.6C322.2,83.8,315.6,84.7,308.8,85.8C304,85.4,310.2,85.6,308.8,85.8z"/>
		<path class="st0" d="M111.8,54c0-3.5,2.8-7.4,6.5-4.7c1.9,1.4,2.3,3.8,3.1,5.9c0.9,2.6,1.8,5.3,2.8,7.9c0.9,2.5,1.7,4.9,2.5,7.4
			c0.2,0.6,0.5,2.7,1.2,2.9c0.8,0.3,1.3-2,1.4-2.5c1.9-5.4,3.8-10.8,5.7-16.2c0.7-2,1.4-4.3,3.3-5.6c1.5-1,3.9-0.8,5.1,0.5
			c1.4,1.4,1.3,3.4,0.7,5.2c-0.9,2.8-2.1,5.6-3.2,8.3c-2.1,5.3-4,10.8-6.4,16c-1.6,3.5-4.4,8.3-9,6c-2.3-1.1-3-4.3-3.9-6.5
			c-1.2-2.8-2.3-5.5-3.5-8.3C116,65,113.5,59.6,111.8,54C111.8,50.7,111.9,54.3,111.8,54z"/>
		<path class="st0" d="M48.3,67.4c0-2.8,0-5.7,0-8.5c0-2.5,0-5.1,1-7.4c0.7-1.7,2.3-3.3,4.3-3.1c2.4,0.3,3.2,2.8,4.5,4.4
			c1.8-1.9,3.3-4,6.1-4.3c2.2-0.2,5.3,0.7,7.2,1.9c2.4,1.5,3,4.6,0.9,6.5c-2.3,2.2-4.7,0.5-7.5,0.2c-6.4-0.7-6.6,6.8-6.7,11.4
			c-0.1,3.7-0.3,7.5-0.1,11.2c0.1,2.7-1.4,5.4-4.3,5.9c-3.2,0.6-4.7-2.5-5.2-5.2C47.9,76.2,48.3,71.6,48.3,67.4z"/>
		<path class="st0" d="M247.1,67c0-2.4,0-4.8,0-7.1c0-2.2-0.3-4.6,0.1-6.8c0.6-3.3,4.6-6.4,7.4-3.4c0.6,0.6,1,1.4,1.4,2.1
			c0.5,0.9,0.2,1,1,0.6c1.4-0.6,2.2-2.4,3.8-3.1c2.6-1.2,6.1-0.9,8.5,0.7c2.3,1.5,4.1,5.8,1.1,7.6c-3.3,2-7.1-2-10.3,0
			c-3.4,2.2-3.2,7.7-3.1,11.1c0,2.4,0,4.9,0,7.3c0,1.9,0.1,4-0.5,5.9c-0.6,1.8-2,3.2-3.8,3.7c-2.1,0.6-3.6-0.9-4.6-2.7
			c-1.3-2.2-0.8-4.8-0.8-7.3C247.2,72.7,247.1,69.8,247.1,67C247.1,62.7,247.1,71.1,247.1,67z"/>
		<path class="st0" d="M189.6,60.6c0-4,0-8.1,0-12.1c0-1.9,0-3.8,0-5.6c0-1.7-0.2-3.6,0.7-5.2c1.3-2.3,4.4-2.6,6.4-1.1
			c2.7,2,1.9,6,1.9,8.8c0,8.3,0,16.6,0,24.8c0,3.7,0.6,7.9-0.1,11.5c-0.5,2.6-3.3,4.8-6,3.7c-4.1-1.7-2.9-7.2-2.9-10.7
			C189.5,70,189.6,65.3,189.6,60.6C189.6,53.9,189.6,67.5,189.6,60.6z"/>
		<path class="st0" d="M288.2,43.2c0.4,4.8-3,11.6-8.3,12.5c-1.1,0.2-1.7-0.3-2.4-1.2c-1-1.4-0.6-2.1,0.6-3.2
			c0.9-0.9,4.7-3.1,3.8-4.8c-0.4-0.8-2.1-1.2-2.8-1.8c-0.8-0.6-1.5-1.5-1.8-2.5c-0.8-2.2,0.3-4.3,2-5.8
			C283.4,32.9,289.5,38.7,288.2,43.2C288.5,47.2,288.8,41.2,288.2,43.2z"/>
		<path class="st0" d="M429.5,82.8c-4.2,0-8-3.1-11.5-5.1c-4.5-2.5-9-5.1-13.6-7.4c-2.3-1.1-4.5-2.4-6.7-3.6
			c-2.5-1.4-3.8-1.7-2.4-4.5c2.5-4.8,4.9-9.5,7.2-14.4c0.3-0.5,0.8-2.3,1.5-2.4c0.6-0.1,1.1,0.7,1.5,1c1.3,1.1,3,2.9,4.3,0.9
			c1-1.5,1.7-2.7,3.6-3.3c1.7-0.5,3.8-0.1,4.6,1.7c0.8,1.7,0.2,4-0.8,5.4c-0.6,0.8-1.6,1.3-2.2,2.1c-0.6,0.8-0.3,0.9,0.3,1.6
			c3.8,3.7,8.2,6.8,12.3,10.2c3.2,2.7,8.5,5.7,8.6,10.4C436.4,79.7,433.3,81.8,429.5,82.8C426.1,82.8,429.9,82.7,429.5,82.8z"/>
		<path class="st0" d="M508.6,66.9c0.7,7.9-4.6,16.4-12.7,17.9c-4,0.8-7.6,1.1-11.5-0.2c-3.3-1.1-6.2-3.2-8.2-5.9
			c-4.1-5.5-4.4-13.2-2.1-19.6c2.6-7.2,10.6-11.3,18-10.6c4.4,0.4,9,1.9,12,5.2C506.9,56.9,509.7,62.8,508.6,66.9
			C509,71.8,509.4,64,508.6,66.9z M498.9,67.9c0-4.7-0.3-9.8-5.5-11.6c-2.2-0.7-4.8-0.7-6.9,0.5c-2.7,1.6-3.6,4.6-4.2,7.5
			c-0.9,5.3,0.7,12.7,6.9,13.9C495.4,79.4,499.3,73.3,498.9,67.9C498.9,66.5,499.1,69.8,498.9,67.9z"/>
		<path class="st0" d="M466.1,71.9c0,5.3-0.1,10.6,0,15.9c0,3.3-0.4,6.3-2.9,8.6c-3,2.8-7.4,3.4-11.2,2.2c-1.7-0.5-3.6-1.2-4.4-2.9
			c-0.8-1.7-0.1-3.6,1.4-4.6c0.5-0.3,1.5-0.9,2.1-0.9c0.7,0,1.4,0.5,2.2,0.6c1.6,0.3,2.3-0.2,2.9-1.6c1.8-4,0.9-9.3,0.9-13.5
			c0-5.1,0-10.2,0-15.3c0-3.4-1.3-9.3,2.2-11.4c1.7-1,3.7-1,5.2,0.4c1.9,1.8,1.6,4.4,1.6,6.7C466.1,57.4,466.1,71.9,466.1,71.9
			C466.1,77.8,466.1,71.9,466.1,71.9z"/>
		<path class="st0" d="M462.2,36.3c2.3,0,3.7,0.9,3.9,3.3c0.3,2.8-1.1,5.8-4.3,5.7C455.5,45.2,455.6,35.5,462.2,36.3
			C465.3,36.4,458.7,35.9,462.2,36.3z"/>
	</g>
</g>
</svg>
